<?xml version="1.0" encoding="UTF-8" standalone="no"?>
<!-- Created with Inkscape (http://www.inkscape.org/) -->
<svg
   xmlns:dc="http://purl.org/dc/elements/1.1/"
   xmlns:cc="http://web.resource.org/cc/"
   xmlns:rdf="http://www.w3.org/1999/02/22-rdf-syntax-ns#"
   xmlns:svg="http://www.w3.org/2000/svg"
   xmlns="http://www.w3.org/2000/svg"
   xmlns:sodipodi="http://inkscape.sourceforge.net/DTD/sodipodi-0.dtd"
   xmlns:inkscape="http://www.inkscape.org/namespaces/inkscape"
   id="svg4995"
   sodipodi:version="0.32"
   inkscape:version="0.43"
   width="595.28003pt"
   height="600pt"
   sodipodi:docbase="C:\foo\wikipedia\transfer"
   sodipodi:docname="g1404.svg"
   version="1.0">
  <metadata
     id="metadata5000">
    <rdf:RDF>
      <cc:Work
         rdf:about="">
        <dc:format>image/svg+xml</dc:format>
        <dc:type
           rdf:resource="http://purl.org/dc/dcmitype/StillImage" />
        <cc:license
           rdf:resource="http://web.resource.org/cc/PublicDomain" />
      </cc:Work>
      <cc:License
         rdf:about="http://web.resource.org/cc/PublicDomain">
        <cc:permits
           rdf:resource="http://web.resource.org/cc/Reproduction" />
        <cc:permits
           rdf:resource="http://web.resource.org/cc/Distribution" />
        <cc:permits
           rdf:resource="http://web.resource.org/cc/DerivativeWorks" />
      </cc:License>
    </rdf:RDF>
  </metadata>
  <defs
     id="defs4998" />
  <sodipodi:namedview
     inkscape:window-height="540"
     inkscape:window-width="812"
     inkscape:pageshadow="2"
     inkscape:pageopacity="0.0"
     borderopacity="1.0"
     bordercolor="#666666"
     pagecolor="#ffffff"
     id="base"
     inkscape:zoom="0.30806388"
     inkscape:cx="777.68748"
     inkscape:cy="521.51941"
     inkscape:window-x="0"
     inkscape:window-y="0"
     inkscape:current-layer="svg4995" />
  <path
     style="fill:#000000"
     d="M 29.717039,739.11829 C 16.760039,738.85009 12.703939,738.45339 12.152539,737.40069 C 11.801539,736.73049 11.373339,734.11191 10.331139,726.2633 C 9.9198388,723.16601 9.2035388,718.74908 8.7393388,716.4479 C 7.6360388,710.97867 7.6669388,709.60157 8.9733388,706.02189 C 10.854839,700.86664 13.524139,688.54882 13.578239,684.77197 C 13.593039,683.74596 13.067539,680.95942 12.356339,678.29273 C 10.740039,672.23142 10.472039,669.13882 11.190239,664.83585 C 11.496239,663.00219 12.144939,657.22558 12.631839,651.99892 C 13.118639,646.77226 13.785539,639.72418 14.113839,636.33653 L 14.710839,630.17716 L 20.813539,619.44269 C 24.170039,613.53874 27.252539,607.83692 27.663539,606.77199 C 28.229939,605.30462 28.405339,604.09361 28.388039,601.77069 C 28.344139,595.88441 26.838839,590.97377 22.184439,581.53312 C 17.909539,572.86228 16.676439,569.2878 16.432439,564.85841 C 16.051739,557.9508 18.210139,554.08388 25.579139,548.4715 C 27.465239,547.03496 29.345839,545.40336 29.758139,544.84571 C 30.240839,544.19271 31.043239,543.69693 32.012039,543.45299 C 33.154139,543.1654 33.871939,542.64942 34.993139,541.31034 C 36.006139,540.10046 36.733139,539.54647 37.308039,539.54647 C 38.268239,539.54647 38.952739,538.45623 39.595739,535.90262 C 40.071539,534.01296 39.794939,533.08019 37.942439,530.32734 C 36.390039,528.0205 35.468039,525.39717 35.182439,522.47464 C 34.816939,518.73382 33.796539,515.35311 31.155439,509.13257 C 27.784139,501.19226 26.726139,497.27459 25.824139,489.39162 C 25.148139,483.48471 25.211339,479.05789 25.994239,477.47479 C 27.550239,474.32809 33.780839,468.80173 35.772439,468.80173 C 37.189239,468.80173 38.377039,465.81623 37.989139,463.23004 C 37.800939,461.97487 37.423539,461.3219 36.197639,460.13047 C 35.343439,459.30029 34.644539,458.31775 34.644539,457.94706 C 34.644539,456.98423 35.539239,456.36622 36.561739,456.62283 C 38.584539,457.13054 38.451139,453.25116 36.355139,450.61368 C 35.443839,449.46684 35.330039,449.07001 35.420939,447.35506 C 35.511739,445.64248 35.638139,445.34799 36.449039,444.96083 C 37.822639,444.30494 38.280539,442.82701 38.087639,439.67137 C 37.953839,437.48036 37.698939,436.52883 36.781739,434.79629 C 36.013339,433.34454 35.579939,431.95696 35.451039,430.53503 C 35.282839,428.68035 35.375139,428.22973 36.217739,426.79203 C 37.121939,425.24916 37.193639,424.79738 37.497439,418.73452 C 38.105339,406.60398 38.475539,403.90928 40.317239,398.20669 C 41.798739,393.61954 43.553539,390.40879 48.633739,382.99027 C 54.376139,374.60473 55.152739,373.7698 57.203739,373.7767 C 61.252039,373.79029 65.816939,375.62212 68.609039,378.35357 C 71.974839,381.64615 74.103839,381.74604 77.174239,378.75544 C 80.056739,375.94782 81.553339,372.90052 80.399839,372.18765 C 80.206239,372.06802 80.047939,371.74003 80.047939,371.45881 C 80.047939,371.06052 80.355039,370.99657 81.436939,371.16956 C 83.181939,371.44864 85.694739,370.32481 90.958739,366.91094 C 97.453839,362.69878 103.92344,359.72021 113.02354,356.75263 C 119.17984,354.745 122.93614,353.8088 133.01424,351.77017 C 144.30454,349.48636 148.68084,347.99551 148.68084,346.43314 C 148.68084,346.23641 148.34724,345.77373 147.93944,345.40496 C 145.25104,342.97365 143.33024,332.40413 144.42954,326.09153 C 145.39484,320.54844 148.57404,312.54538 150.91494,309.76593 C 151.62454,308.92335 152.29054,307.81466 152.39484,307.30218 C 152.91524,304.7451 153.37164,303.65926 154.48794,302.3232 C 155.91584,300.61413 156.54354,298.61469 156.23004,296.77418 C 156.10694,296.05112 155.30824,294.2357 154.45524,292.7399 C 152.82204,289.87591 152.62584,289.16467 153.34434,288.71346 C 153.58634,288.5615 156.04124,288.48318 158.79984,288.53943 C 161.89534,288.60255 163.81524,288.51024 163.81524,288.29829 C 163.81524,287.71632 161.77874,286.20495 160.66494,285.96032 C 160.07204,285.83009 159.05894,285.92761 158.35314,286.18283 C 156.26554,286.93774 155.87784,286.41649 155.99004,283.00539 C 156.04174,281.43443 155.99374,280.1491 155.88344,280.1491 C 155.77304,280.1491 155.10004,280.54506 154.38784,281.02901 C 153.04094,281.94428 151.84854,282.18116 151.84854,281.53348 C 151.84854,281.32698 152.27884,280.59381 152.80484,279.90421 C 153.59304,278.87077 153.76324,278.28197 153.77274,276.55428 C 153.78304,274.687 153.67654,274.36536 152.79674,273.60801 C 149.99974,271.20009 144.00254,273.94149 141.95854,278.56234 C 140.20104,282.53557 140.90834,284.70507 144.41974,286.11126 C 145.65734,286.60689 146.90414,287.36877 147.19044,287.80434 C 147.68674,288.55968 147.65244,288.62067 146.44734,289.1242 C 145.52094,289.51128 143.81924,289.65213 140.06904,289.65213 C 134.33654,289.65213 134.68954,289.86514 135.34644,286.8021 C 135.82024,284.59292 135.41124,282.90752 134.04614,281.4443 C 133.22774,280.56697 132.95754,280.47921 131.71954,280.68837 C 130.34084,280.9213 130.32074,280.90926 130.43684,279.92112 C 130.55444,278.91905 130.55104,278.91723 128.51274,278.91723 C 126.04034,278.91723 125.76964,278.63775 123.70074,273.94969 C 121.60764,269.20689 121.59404,268.96946 123.25314,266.16343 C 124.02734,264.85408 125.14954,262.80898 125.74694,261.61877 C 126.78394,259.55277 128.24534,257.97538 129.12254,257.97538 C 129.34724,257.97538 130.71174,257.24146 132.15474,256.34445 C 135.79734,254.08001 137.39114,253.42204 139.07144,253.48905 C 140.17214,253.53294 140.96904,253.26258 142.39994,252.35989 C 146.19914,249.96312 147.30484,249.47065 149.62424,249.14218 C 154.22924,248.49003 156.03334,246.74381 159.95254,239.14532 L 162.49404,234.21782 L 158.04644,238.85558 C 155.60024,241.40635 153.04554,243.83528 152.36934,244.2532 C 151.35004,244.88317 149.77164,245.15748 143.13504,245.85801 C 138.73244,246.32273 134.06944,246.94269 132.77294,247.23569 C 129.25994,248.02965 128.94544,247.9836 129.19964,246.71254 C 129.38244,245.79878 129.30794,245.65665 128.64694,245.65665 C 126.60464,245.65665 125.36104,242.27942 126.16674,238.92098 C 126.74674,236.50318 129.32914,233.73824 132.61584,232.01585 C 134.99324,230.76996 135.12734,230.63498 135.07654,229.53791 C 134.96924,227.21727 131.46734,223.7567 126.27984,220.84491 C 122.59204,218.77496 121.47224,217.85451 120.46824,216.06827 C 119.85044,214.96898 119.48604,214.68383 118.69914,214.68383 C 117.96414,214.68383 117.70804,214.51302 117.70804,214.02288 C 117.70804,212.67533 116.61564,210.84942 112.93954,206.05241 C 110.86624,203.34685 108.79104,200.28954 108.32794,199.25837 C 107.86494,198.2272 106.72084,196.24741 105.78554,194.85882 C 103.26184,191.112 102.84044,190.1242 102.56434,187.30898 C 102.41034,185.73771 102.09144,184.5025 101.73944,184.11359 C 100.80104,183.07664 101.05754,182.09864 102.61824,180.76271 C 104.40444,179.23379 108.66354,177.0122 111.72464,176.01268 C 116.95414,174.30513 129.11124,172.06641 137.76994,171.21644 C 142.13424,170.78802 143.32744,169.92629 141.65374,168.41164 C 138.88044,165.90178 112.28374,169.63024 104.44934,173.62715 C 101.41694,175.17416 100.48114,176.55496 99.756439,180.55094 C 99.090339,184.22463 98.117539,185.05026 97.189139,182.72993 C 95.477439,178.45195 96.137239,176.3048 100.03684,173.46311 C 101.52884,172.3759 103.11324,171.29733 103.55774,171.06628 C 105.15634,170.2353 111.28194,168.14158 115.59624,166.95153 C 131.48044,162.57006 134.57884,162.60236 158.71184,167.40102 C 164.28074,168.50836 168.01524,169.05851 170.67854,169.16392 C 176.34124,169.38805 176.85294,168.5931 172.45944,166.39725 C 168.93814,164.63735 168.03884,163.81286 168.03884,162.34451 C 168.03884,159.99546 171.05404,157.27023 174.19824,156.77749 C 175.36024,156.59538 176.28994,156.83257 179.52314,158.13616 C 184.32234,160.07106 185.19714,160.51753 186.42724,161.65944 C 187.27854,162.44975 187.34934,162.67363 187.02224,163.54268 C 186.50244,164.92384 184.41654,166.97732 182.78694,167.71215 C 182.03154,168.0528 181.41344,168.44948 181.41344,168.59366 C 181.41344,168.73785 182.79934,169.04469 184.49314,169.27554 C 187.82104,169.72909 191.40384,170.54768 192.40414,171.083 C 193.44674,171.64097 193.13044,172.3971 191.74574,172.65686 C 191.04044,172.7892 187.19964,172.82632 183.21064,172.73937 C 175.88244,172.57963 174.72614,172.63179 174.72614,173.12218 C 174.72614,173.41456 177.70144,174.34294 180.53354,174.9343 C 181.50144,175.13639 186.80734,176.78561 192.32434,178.59922 C 206.40244,183.22711 212.63764,184.51497 223.82514,185.10557 C 233.36434,185.60916 256.67274,184.57304 279.25944,182.64137 C 293.46424,181.42654 300.05674,180.45512 317.62344,176.98833 C 345.31334,171.52374 363.59534,167.09595 383.61674,161.0052 C 387.68184,159.76851 395.68024,157.41227 401.39084,155.7691 C 416.52234,151.4152 424.82444,148.36048 426.94794,146.36556 C 427.36474,145.97398 428.63504,145.41177 429.77074,145.11621 C 435.56324,143.60877 442.09074,139.31838 449.68194,132.02895 C 453.15044,128.69837 455.39574,125.90661 455.72394,124.51655 C 456.02174,123.25488 456.91874,123.03648 458.98254,123.7231 C 462.23524,124.80531 468.44224,128.88853 468.11814,129.73296 C 468.01564,130.00007 468.08284,130.61604 468.26754,131.10178 C 468.54254,131.82495 468.46104,132.11428 467.81774,132.6989 C 467.38564,133.09157 466.76524,133.65991 466.43914,133.96187 C 466.11304,134.26382 464.44994,137.06576 462.74354,140.18839 C 461.03704,143.31102 458.88084,146.87646 457.95184,148.11159 C 457.02284,149.34672 456.33504,150.42951 456.42324,150.5178 C 456.74004,150.83462 458.71164,149.56374 460.64614,147.79572 C 464.17524,144.57038 468.61594,138.38462 468.61594,136.6942 C 468.61594,135.87569 469.22054,135.49196 470.51014,135.49196 C 474.48834,135.49196 471.32294,142.70425 459.66054,160.21276 L 458.31554,162.23189 L 459.94334,164.13727 C 463.38634,168.16727 467.29814,170.68834 470.10834,170.68834 C 473.32084,170.68834 473.58254,168.8694 471.14524,163.48242 C 469.40314,159.632 469.53674,159.25166 472.53664,159.52367 C 475.08324,159.75459 478.05274,161.30779 481.21064,164.06069 C 482.51074,165.19402 484.08214,166.44765 484.70274,166.84654 C 485.32324,167.24542 485.93264,167.89205 486.05684,168.28349 C 486.18114,168.67492 486.90374,169.88168 487.66274,170.96516 C 489.04924,172.94441 490.08394,175.6691 490.08794,177.35155 C 490.08914,177.84876 490.71224,180.07253 491.47254,182.29326 C 492.56704,185.48983 493.08544,186.51903 493.96124,187.23377 L 495.06734,188.13658 L 494.37924,189.94756 C 492.82474,194.03879 486.85314,201.21194 482.61684,204.07682 L 480.95534,205.20045 L 482.00064,202.99085 C 484.09094,198.57234 482.99734,198.09877 478.23154,201.3587 C 476.73784,202.38047 475.30324,202.68318 475.30324,201.97661 C 475.30324,201.76294 475.87954,200.49143 476.58394,199.15102 C 477.28824,197.81062 477.76204,196.61136 477.63674,196.486 C 477.33484,196.18421 470.90734,200.5478 468.60634,202.61658 C 467.60844,203.51376 466.65384,204.61124 466.48494,205.05543 C 466.02054,206.27683 463.66624,205.96015 462.29454,204.49178 C 461.07394,203.18511 458.71954,202.09047 456.46514,201.78147 L 454.80944,201.55453 L 455.04614,202.95539 C 455.39014,204.99155 454.84774,205.31364 452.21884,204.63443 C 446.96494,203.27703 437.20214,199.14998 431.86374,196.02973 C 426.88214,193.11792 426.51704,193.1863 428.88724,196.58733 C 430.55844,198.98542 433.18504,202.06014 436.91194,205.98124 C 439.86304,209.08605 439.86534,209.56619 436.93084,209.95872 C 434.63724,210.26552 433.68064,209.7478 432.42274,207.51903 C 431.82054,206.45199 431.11014,205.44979 430.84404,205.2919 C 430.57804,205.13401 429.13034,203.37747 427.62694,201.38848 C 426.12364,199.39949 424.60504,197.61768 424.25224,197.42889 C 423.20184,196.86674 422.53504,197.03416 422.31384,197.91555 C 422.01024,199.12488 422.85134,200.78941 425.27324,203.77295 C 426.45184,205.2248 427.36884,206.57106 427.31104,206.76464 C 427.06754,207.5798 425.42864,207.29818 424.07394,206.20839 C 423.30984,205.59373 422.15144,204.86364 421.49974,204.58598 C 419.29084,203.64491 418.56274,204.8153 420.39694,206.35867 C 421.68104,207.43918 421.70604,207.78101 420.57294,208.76624 C 420.08894,209.18703 419.69304,209.84177 419.69304,210.22121 C 419.69304,211.11346 420.95234,213.62832 422.02314,214.87454 C 422.60024,215.54608 422.86064,216.2828 422.86064,217.24337 C 422.86064,218.46425 422.77314,218.61465 422.15674,218.45345 C 421.32264,218.23533 421.29954,218.49658 421.94584,220.84319 C 423.50734,226.51356 427.88244,235.85256 430.85184,239.85422 C 433.65324,243.62928 437.94684,247.82639 438.87174,247.69381 C 439.31434,247.63037 439.86104,246.99988 440.33304,246.00861 C 441.09024,244.41846 443.09024,236.26028 444.17274,230.34622 C 445.07254,225.43102 446.09324,223.48292 447.76904,223.48292 C 448.37204,223.48292 449.47224,224.2978 451.39294,226.16692 C 454.49834,229.18894 455.44834,229.42455 455.11414,227.08978 C 454.60354,223.52292 454.50904,221.7231 454.83244,221.7231 C 455.52074,221.7231 458.67654,224.50542 459.93904,226.22533 C 463.97934,231.72926 465.04104,239.72646 462.77594,247.59245 C 461.84854,250.81285 460.89824,252.05561 458.39834,253.31691 C 455.32214,254.86903 452.83054,255.29522 446.79424,255.30176 C 440.86224,255.30818 439.05104,254.82634 439.05104,253.24183 C 439.05104,252.31034 438.60754,251.77528 436.49074,250.15309 C 435.80244,249.62564 433.97584,247.56666 432.43154,245.57756 C 430.88724,243.58847 429.23284,241.59778 428.75504,241.15382 L 427.88624,240.34661 L 427.48634,241.3298 C 427.26634,241.87055 426.69304,244.10499 426.21224,246.29521 C 425.27834,250.549 425.21524,250.72452 424.21834,251.83636 C 422.75314,253.47056 420.12434,263.51696 419.78264,268.78836 C 419.59834,271.631 419.61064,271.68809 420.48074,272.01889 C 421.53204,272.4186 422.05764,273.74148 422.36774,276.76861 C 422.57064,278.74856 422.44214,279.38847 420.97884,283.68533 C 419.06684,289.29995 418.18294,293.75145 417.41754,301.6189 C 415.87754,317.45107 415.21574,321.62626 413.33374,327.3854 C 411.98424,331.51511 409.62024,336.51494 407.32704,340.08991 C 403.53744,345.99763 402.78654,349.20526 403.43554,356.71462 C 403.86904,361.73151 404.14114,362.29564 406.29234,362.63965 C 407.03454,362.75833 407.99674,363.14278 408.43044,363.49397 C 409.10704,364.04184 409.18414,364.33819 408.97404,365.58178 C 408.17264,370.32531 401.02244,380.15087 396.98044,382.06306 C 395.61244,382.71018 394.75574,383.49488 393.32914,385.40735 C 391.57774,387.7553 389.35964,390.47869 387.65114,392.3788 C 386.70164,393.43476 386.07294,392.95401 386.59784,391.57344 C 387.05454,390.37232 386.83064,389.96961 385.84904,390.22629 C 385.15224,390.40851 385.10924,390.32682 385.32214,389.22538 C 385.44964,388.56573 386.81914,385.4127 388.36544,382.21862 C 391.82394,375.07443 392.16284,373.75393 391.54934,369.81014 C 391.19564,367.5368 391.18274,366.22824 391.49134,363.9353 C 391.85274,361.24964 392.24714,360.25706 395.89224,352.85986 C 400.52304,343.46235 401.78744,340.42484 401.98484,338.22314 L 402.12694,336.6393 L 401.59994,337.78319 C 401.05684,338.96192 400.10484,339.30201 399.77244,338.43599 C 399.66884,338.1659 400.17194,336.54246 400.89044,334.82836 C 401.60894,333.11426 402.92624,329.49444 403.81764,326.78432 C 405.44644,321.8325 406.20314,320.75763 406.66944,322.73318 C 407.02724,324.24871 407.35174,322.98909 407.73214,318.60797 C 407.98324,315.7167 407.98434,313.41889 407.73584,311.26505 C 407.38754,308.24591 406.08914,301.2723 405.82634,301.00956 C 405.67714,300.86036 403.23834,306.60261 402.93124,307.82613 C 402.81644,308.28375 402.52274,308.65818 402.27864,308.65818 C 401.77214,308.65818 401.40294,306.83149 401.38934,304.25863 C 401.37514,301.55153 400.94174,301.22932 399.78314,303.06448 C 398.41294,305.23478 396.66284,309.17002 395.20584,313.35698 C 393.79324,317.41626 392.76154,319.33804 390.64284,321.85682 C 388.63784,324.24039 388.09164,325.41595 387.29654,329.05901 C 386.41064,333.11787 386.11244,333.8471 385.05454,334.54022 C 383.85294,335.32755 382.39914,334.95435 380.86554,333.46489 C 377.95944,330.6426 378.19314,327.75967 381.80484,321.87753 C 382.51094,320.72743 383.08874,319.57915 383.08874,319.32579 C 383.08874,318.5567 382.42804,318.80563 381.39214,319.96502 C 378.79234,322.87475 375.56994,319.39713 377.45044,315.71108 L 378.20854,314.22507 L 376.77704,312.90354 C 375.98974,312.1767 375.34764,311.35971 375.35014,311.088 C 375.35254,310.81629 375.66934,309.58997 376.05404,308.36285 C 377.24964,304.54872 376.93144,303.70885 374.54104,304.36886 C 372.97984,304.79996 372.36554,304.43323 372.66314,303.24768 C 372.95074,302.10175 375.56264,298.91472 376.82834,298.1654 C 377.73224,297.63026 377.82734,297.64159 378.61084,298.37762 C 379.65814,299.36143 380.68104,299.36723 381.53834,298.3942 C 382.73914,297.03144 388.53304,293.45273 388.65014,294.00149 C 388.70834,294.27449 388.43124,295.77011 388.03424,297.3251 C 387.17474,300.69109 387.11584,301.97086 387.82034,301.97086 C 388.50524,301.97086 389.35984,300.69182 389.81924,298.97917 C 390.27894,297.26542 390.71634,296.69141 391.56244,296.69141 C 391.91674,296.69141 392.70584,296.07021 393.31594,295.31098 C 393.92614,294.55175 394.88464,293.74031 395.44594,293.50779 C 397.72754,292.56272 400.74004,287.49183 401.38914,283.5036 C 401.58594,282.29449 402.01914,281.1322 402.44014,280.68408 C 403.04094,280.04454 403.21934,279.13171 403.54714,275.0199 C 404.11084,267.94747 403.81174,260.91509 402.86574,259.00316 C 402.00404,257.26153 402.19224,256.68227 404.44334,254.14558 C 405.47194,252.98643 406.14664,252.55581 407.20344,252.38404 C 409.21354,252.0573 409.59504,251.05638 409.76704,245.65665 C 409.86554,242.56634 409.73984,240.38143 409.34474,238.31452 C 408.19494,232.3008 408.68534,230.43458 411.32224,230.78826 L 412.76324,230.98154 L 412.54134,229.60799 C 412.21904,227.61274 410.07994,223.49739 408.64304,222.10799 C 407.63474,221.13299 407.30754,220.98833 406.89164,221.33351 C 406.31574,221.81152 405.74954,224.04142 405.40764,227.17854 C 405.14014,229.63325 404.43114,231.57809 403.80384,231.57809 C 403.56264,231.57809 402.91994,231.1515 402.37574,230.63011 C 401.18294,229.4874 400.89384,229.71567 400.37254,232.21135 C 399.82674,234.8246 399.88774,238.06006 400.51094,239.55157 C 400.80134,240.24652 401.03894,241.00338 401.03894,241.23347 C 401.03894,241.46356 400.04904,241.93338 398.83914,242.2775 C 395.41514,243.25138 395.59164,243.16591 396.05254,243.62679 C 397.13404,244.70825 396.50754,245.58517 392.15184,249.08708 C 388.68994,251.87037 387.45874,253.11413 385.90444,255.39841 C 383.32004,259.19652 381.31484,261.51709 379.57604,262.7221 L 378.14034,263.71705 L 377.43314,262.958 C 376.49464,261.9506 375.71604,262.00092 374.20194,263.16685 C 372.70874,264.3167 371.82594,265.68439 371.82594,266.84773 C 371.82594,268.30695 367.25524,271.84759 366.43294,271.02533 C 365.92244,270.51484 367.15314,267.37621 368.67164,265.31604 C 369.43584,264.27917 370.32714,262.87648 370.65214,262.19895 C 372.03284,259.32116 371.47864,252.2945 369.73334,250.54925 C 368.91844,249.73435 368.38954,249.56766 365.99354,249.37058 C 362.32684,249.069 361.54014,248.88548 361.71014,248.37139 C 361.86964,247.88937 362.44054,247.57552 366.22854,245.88774 C 369.52344,244.41965 371.38624,242.77801 372.82934,240.0704 C 374.44534,237.03839 374.34384,236.39689 372.07854,235.32521 C 368.35304,233.56279 367.34984,233.75677 368.83924,235.95155 C 369.98834,237.64491 369.94544,237.91344 368.52524,237.91344 C 366.96874,237.91344 365.15484,238.69292 363.14994,240.22328 C 360.54374,242.21262 359.35794,242.58387 356.33954,242.35549 C 351.16804,241.96421 346.59114,240.11859 345.59694,238.02361 C 345.01064,236.78799 344.37274,236.75052 344.37274,237.95169 C 344.37274,239.04469 345.36554,240.70286 347.18244,242.64454 C 350.92254,246.64134 352.19494,249.02383 351.59644,250.90937 C 351.27954,251.90792 349.87634,252.575 347.06164,253.06514 C 345.76844,253.29035 344.35724,253.76495 343.92564,254.11982 C 343.18894,254.72548 343.17364,254.82502 343.67654,255.74399 C 344.41954,257.10189 347.21724,258.74251 349.59524,259.21488 C 351.47164,259.58761 351.59434,259.67519 351.69724,260.71538 C 351.90514,262.81599 356.69194,266.28047 360.32934,266.96285 C 362.53404,267.37646 362.89244,268.61822 361.13864,269.76735 C 360.31734,270.30547 360.09174,270.2783 357.12334,269.28379 C 353.72314,268.14461 340.92054,262.23559 338.46844,260.67361 L 336.96364,259.71508 L 337.85244,258.19837 C 338.34134,257.36418 338.74134,256.43326 338.74134,256.12967 C 338.74134,255.82607 337.96824,255.02231 337.02344,254.34353 C 332.53314,251.11756 330.68144,251.20498 331.64144,254.59761 C 331.86584,255.3907 332.23414,258.18834 332.45974,260.81461 L 332.87004,265.58965 L 331.93404,267.56812 C 331.41934,268.65628 330.99434,269.99196 330.98974,270.53629 C 330.97504,272.25957 330.37924,274.20126 329.70934,274.70892 C 329.35344,274.97859 328.56074,275.20426 327.94774,275.21042 C 327.33474,275.21657 326.77044,275.40977 326.69384,275.63974 C 326.47674,276.29087 324.70114,274.84673 324.44864,273.81376 C 324.10604,272.41193 323.44794,270.47778 321.39494,264.83868 C 318.42364,256.67716 316.38444,251.90173 313.57624,246.52855 C 312.15764,243.81403 310.73014,240.56716 310.40414,239.31329 C 309.34384,235.23498 310.07684,232.22809 312.46124,230.87514 C 313.30024,230.39905 313.55184,230.41144 315.06674,231.00347 C 317.55094,231.97427 319.14914,232.09969 320.20664,231.40681 C 320.70174,231.08239 322.26334,230.52748 323.67674,230.17369 C 327.34004,229.25671 333.43064,226.57987 337.37014,224.15541 C 339.22924,223.01122 340.90574,222.07507 341.09554,222.07507 C 341.28534,222.07507 341.87964,222.56777 342.41624,223.16995 C 343.29104,224.15184 343.53544,224.24186 344.78404,224.04221 C 346.62434,223.74793 352.86734,221.42783 353.88554,220.65982 L 354.68864,220.05407 L 353.54534,218.46201 C 351.21594,215.21849 353.19654,214.65052 358.29894,217.09883 C 361.41194,218.59252 362.32284,218.83736 362.32284,218.18033 C 362.32284,217.41491 361.57494,216.44365 360.98554,216.44365 C 359.58144,216.44365 354.22774,211.16654 354.22774,209.78252 C 354.22774,209.59504 355.01964,208.39538 355.98754,207.1166 C 356.95544,205.83783 357.74734,204.64157 357.74734,204.45824 C 357.74734,204.27491 357.90574,204.12491 358.09934,204.12491 C 358.29294,204.12491 358.45124,204.94595 358.45124,205.94944 C 358.45124,207.67162 358.54744,207.86665 360.16574,209.42649 C 362.73184,211.89991 370.65744,216.02221 374.02194,216.63345 C 375.78174,216.95315 376.10514,216.16458 374.87544,214.55236 C 373.15274,212.29384 373.34714,210.10595 375.26994,210.11062 C 376.58164,210.1138 377.92434,211.07261 380.54674,213.87873 L 382.77924,216.26766 L 382.58444,214.813 C 382.47734,214.01293 381.69294,211.16202 380.84124,208.47765 C 378.70204,201.73459 378.72864,201.91211 379.71894,200.98182 C 380.41294,200.32978 380.68644,200.26141 381.29574,200.5875 C 382.38704,201.17155 382.19644,200.45351 380.99084,199.4391 C 379.08024,197.83138 377.14624,197.33241 373.87434,197.60301 C 372.26384,197.73622 368.62744,197.89695 365.79364,197.96019 C 359.64374,198.09743 356.30114,198.56933 353.54444,199.68948 C 347.65034,202.08445 340.83724,203.67331 334.52834,204.12415 C 328.80744,204.53298 327.83044,204.71594 327.83044,205.37847 C 327.83044,205.6388 327.12294,206.16473 326.25834,206.54721 C 325.39364,206.92969 323.96764,207.73701 323.08944,208.34126 C 320.61984,210.04036 318.67014,210.79604 316.73394,210.8045 C 313.27824,210.81959 312.22364,212.44154 312.55434,217.23227 C 312.80204,220.82033 312.43654,222.82293 311.26144,224.31688 C 309.72394,226.27148 308.35664,224.98385 306.34104,219.68321 C 305.67474,217.93079 304.92894,216.57531 304.47584,216.29294 C 304.06064,216.03418 302.58164,215.73463 301.18914,215.62726 C 299.36774,215.48683 297.64634,215.02444 295.05434,213.9794 C 290.82044,212.27239 288.10674,211.87468 280.66644,211.87079 C 277.85904,211.86932 271.60284,211.62498 266.76384,211.32781 C 261.92484,211.03064 256.24404,210.78356 254.13984,210.77875 C 250.75074,210.77099 250.23864,210.85098 249.65314,211.47947 C 248.87844,212.31096 244.13194,213.88402 241.17924,214.28783 C 239.78314,214.47875 238.89074,214.81384 238.41324,215.32643 C 237.69914,216.0929 237.24574,216.2492 234.76354,216.58451 C 232.51024,216.8889 227.06194,219.79458 225.43504,221.55954 C 222.82184,224.39454 223.61644,224.54432 228.04864,222.05224 C 231.12364,220.32334 234.90764,218.54985 236.64274,218.02435 L 237.49354,217.76667 L 236.78824,218.66329 C 235.91674,219.77125 234.44214,220.99324 232.72384,222.03157 C 229.66204,223.88164 223.64914,231.46416 223.64914,233.47517 C 223.64914,234.46923 224.93184,234.09269 226.81454,232.54599 C 229.75884,230.12712 231.12524,229.11435 231.44464,229.11435 C 231.91244,229.11435 231.79794,230.10146 231.19494,231.26747 C 230.89284,231.85172 230.69604,232.48077 230.75754,232.66536 C 230.81904,232.84995 232.13534,232.19991 233.68264,231.22083 C 238.45464,228.20118 239.73524,227.72572 244.15184,227.33367 C 246.32914,227.14039 250.55074,226.65242 253.53314,226.24927 C 260.25894,225.3401 260.73244,225.44707 264.23364,228.66695 C 268.83884,232.90204 272.80894,235.05164 277.79454,236.00943 C 282.31894,236.87861 284.28724,236.62506 285.59994,235.00394 C 286.03224,234.47008 286.74074,234.26819 288.66504,234.13051 C 291.00444,233.96312 291.22714,234.01079 292.07694,234.86055 C 292.83584,235.61947 292.98604,236.09211 292.98604,237.72146 C 292.98604,240.06192 293.20834,240.12246 295.68294,238.45593 C 297.98404,236.90631 299.64734,234.86588 301.14604,231.75407 C 303.34734,227.18392 304.88374,228.70937 304.49194,235.07592 C 304.23724,239.21529 303.23504,242.53478 301.63704,244.53225 C 299.79744,246.83184 299.24824,249.72001 299.04984,258.14035 C 298.86474,265.99307 299.25204,269.45177 300.43634,270.52359 C 301.87914,271.82927 301.89034,272.28735 300.51714,273.80739 C 298.91864,275.5767 298.67644,277.22174 299.45804,281.00096 C 299.76934,282.50633 299.93574,283.88079 299.82794,284.05533 C 299.57164,284.46998 298.19034,284.46049 297.07494,284.03642 C 295.91064,283.59375 293.67634,281.5551 292.50834,279.86967 C 291.99474,279.12851 291.16594,277.11289 290.66654,275.39052 C 289.64944,271.88189 287.91664,267.83037 287.43324,267.83037 C 287.25854,267.83037 286.52634,268.46734 285.80604,269.24586 C 285.08574,270.02438 284.37554,270.5867 284.22794,270.49546 C 284.08034,270.40421 283.38744,269.1733 282.68834,267.7601 C 280.66794,263.67651 278.14054,261.14306 276.08684,261.14306 C 275.60334,261.14306 273.44984,262.99034 269.93234,266.42251 C 266.95654,269.32622 264.27044,271.70197 263.96324,271.70197 C 263.46554,271.70197 263.47104,271.59665 264.01384,270.73407 C 266.18524,267.2831 274.39114,258.58905 275.18814,258.89491 C 276.13304,259.25751 277.36024,258.73723 277.79124,257.79128 C 278.33264,256.60299 278.33154,256.59842 277.41164,256.25116 C 276.30824,255.83463 272.53074,256.40567 269.49584,257.44778 C 262.31134,259.91481 260.92154,259.20671 265.00484,255.15967 C 268.29044,251.90337 268.11224,251.14593 263.64874,249.39337 C 260.96494,248.33957 260.58214,248.43639 259.74704,250.38014 C 258.68954,252.8417 255.28044,255.11538 251.43894,255.92114 C 249.67384,256.29137 249.20414,256.24072 246.16624,255.35257 C 241.69804,254.04629 240.61454,253.79796 240.38504,254.0275 C 239.69884,254.7137 241.07004,259.55796 242.29814,260.78604 C 242.82674,261.3146 243.80204,261.4266 249.03304,261.55944 C 253.37114,261.66961 255.44934,261.86194 256.17984,262.22084 C 258.70304,263.46065 257.44594,264.26161 249.80034,266.28561 C 240.21124,268.82411 239.70504,269.13057 239.90694,272.27578 C 240.00164,273.75136 240.16774,274.06868 241.21254,274.77072 C 243.08374,276.02807 244.96624,276.40861 249.43034,276.43191 C 253.45854,276.45292 253.56574,276.47371 253.56594,277.23315 C 253.56624,278.9492 250.03144,281.91019 245.91554,283.6416 C 242.02344,285.27886 241.95124,285.28719 241.95124,284.09898 C 241.95124,282.85201 241.37644,282.31672 238.48254,280.86875 C 236.92024,280.0871 235.29774,278.79352 233.10294,276.57981 C 228.96794,272.40926 228.22524,271.23349 227.65524,267.95545 C 227.09064,264.70876 226.05064,262.45316 224.66234,261.46461 C 223.04034,260.30967 222.49514,260.76316 222.77854,263.03147 C 222.98884,264.71476 222.92634,265.00478 222.20974,265.67246 C 221.76694,266.08499 221.28164,266.42251 221.13144,266.42251 C 220.66084,266.42251 220.12024,267.75038 219.73494,269.85292 C 219.29664,272.24479 218.92484,272.71281 215.90594,274.67201 C 212.68694,276.76109 212.59754,276.90873 212.88034,279.66888 L 213.11844,281.99255 L 211.87214,281.75876 C 210.77154,281.55228 210.57864,281.62876 210.22114,282.41336 C 209.94654,283.01615 209.92214,283.6719 210.14524,284.45314 C 210.60204,286.05282 211.74344,286.16637 213.07184,284.7443 C 214.25974,283.47265 217.20724,282.04268 219.33754,281.70447 C 220.76304,281.47816 220.83344,281.50854 220.83344,282.35012 C 220.83344,282.93962 220.28354,283.76778 219.17944,284.84091 L 217.52554,286.44856 L 218.49844,286.81848 C 219.03354,287.02192 220.02264,287.18838 220.69634,287.18838 C 222.53804,287.18838 223.45404,288.31966 223.98894,291.25512 C 224.83434,295.89432 225.92024,297.39533 228.43114,297.39533 C 229.00444,297.39533 229.42654,297.68262 229.68424,298.24817 C 230.14014,299.24873 230.87234,299.47229 234.96564,299.86076 C 236.64054,300.01972 238.38274,300.39311 238.83724,300.69052 C 239.29164,300.98793 242.42974,301.87525 245.81064,302.66235 C 249.19154,303.44944 252.08394,304.21951 252.23804,304.37361 C 252.39204,304.52771 251.67554,305.62683 250.64564,306.8161 C 247.17974,310.81822 243.28274,319.17145 243.21814,322.7367 C 243.18584,324.52097 243.24884,324.68183 244.02294,324.79128 C 244.48484,324.8566 245.30424,324.58367 245.84374,324.18477 L 246.82474,323.45952 L 247.07574,325.80357 C 247.36054,328.46298 247.06134,333.82541 246.55364,335.16075 C 246.18944,336.11872 245.20214,336.60822 244.31824,336.26905 C 244.01694,336.15341 243.34774,335.44892 242.83114,334.7035 C 240.87534,331.88122 239.73044,332.6412 239.53744,336.88983 C 239.43074,339.24005 239.27934,339.86268 238.70094,340.33104 C 238.10514,340.81355 238.03474,341.13943 238.25074,342.41756 C 238.56394,344.27165 243.62264,354.58282 245.29084,356.76766 C 246.82494,358.77674 247.68364,361.10188 248.45024,365.32175 C 249.21894,369.55327 249.40684,369.89989 250.93204,369.89989 C 251.97024,369.89989 252.17464,370.03923 252.35194,370.86779 C 252.78554,372.89454 253.66824,374.88377 255.38794,377.70986 C 258.83384,383.37275 259.54944,384.62849 259.54944,385.01195 C 259.54944,385.24755 258.96394,385.36212 258.05364,385.30468 C 256.62964,385.21486 256.55204,385.26079 256.43854,386.25984 C 256.30984,387.39196 256.77894,389.35473 257.67944,391.4524 L 258.24374,392.76698 L 263.07864,392.68427 L 267.91344,392.60156 L 269.45084,393.7088 C 270.29644,394.31777 271.03004,395.0305 271.08104,395.29264 C 271.18904,395.84783 269.31344,397.00111 268.30254,397.00111 C 267.44704,397.00111 265.81324,396.17927 265.20014,395.44046 C 264.42304,394.5041 264.01894,394.80316 264.23784,396.15259 C 264.50864,397.82129 265.04654,398.40896 266.30304,398.40896 C 267.80324,398.40896 268.61114,398.96063 268.87584,400.16586 C 269.17984,401.54985 269.49384,401.50177 270.22984,399.95855 C 271.00344,398.33614 271.30564,398.57354 273.52454,402.54668 C 275.49414,406.07354 278.09154,409.06882 280.04384,410.06481 C 282.41094,411.27243 282.53774,410.73041 280.45454,408.31023 C 278.81654,406.40738 276.79564,403.16776 276.79564,402.4449 C 276.79564,402.32882 277.70634,402.94014 278.81944,403.80334 C 280.52034,405.12243 282.43744,406.15048 282.42324,405.73593 C 282.42124,405.67448 282.20444,404.91149 281.94154,404.04038 C 280.98434,400.86806 282.94554,397.00111 285.51174,397.00111 C 287.33404,397.00111 288.76244,398.5936 288.76244,400.62542 C 288.76244,401.48706 288.52484,402.86542 288.23454,403.68842 C 287.31144,406.3046 287.50824,407.2876 289.28254,408.92304 C 290.14934,409.72203 290.91384,410.37573 290.98134,410.37573 C 291.04894,410.37573 290.93934,409.5709 290.73784,408.58719 C 290.42024,407.03669 290.46354,406.62996 291.06284,405.53127 C 291.44304,404.8342 291.93674,404.20552 292.15984,404.13422 C 292.38754,404.06147 292.83314,404.8234 293.17514,405.87028 C 294.14764,408.84691 295.61094,411.89474 297.13574,414.11964 C 298.77434,416.51074 300.84544,418.82287 301.34844,418.82287 C 301.54004,418.82287 301.77424,417.5162 301.86874,415.91916 C 302.05754,412.73248 303.28914,409.45271 305.10704,407.29605 C 306.98824,405.06428 308.02594,405.96929 309.15924,410.83005 C 309.55604,412.53176 310.19734,414.54485 310.58434,415.30354 C 311.00764,416.13316 311.28814,417.37777 311.28814,418.42592 C 311.28814,420.22467 311.94914,423.92655 312.85734,427.21393 C 313.54374,429.69844 315.01344,438.44446 314.78324,438.67465 C 314.68394,438.77397 313.18384,438.62488 311.44954,438.34338 C 307.33724,437.67591 305.60754,437.69591 304.07084,438.42873 C 303.03014,438.92496 302.62374,438.9571 301.71694,438.61485 C 297.91864,437.18116 292.55364,432.54509 289.68204,428.21523 C 286.00384,422.66902 280.83824,418.88309 275.14884,417.56361 C 272.40324,416.92687 272.18704,416.82392 268.70054,414.49188 C 265.41194,412.29228 263.12204,411.26891 259.04514,410.17663 C 253.37614,408.6578 249.42024,409.11422 244.94474,411.8034 C 242.02184,413.5597 240.18814,415.27736 237.33594,418.93088 C 235.94664,420.71048 232.87244,424.06713 230.50454,426.39009 C 225.83724,430.96875 225.17694,431.9375 224.69164,434.91926 C 224.51584,435.99986 223.97984,437.45295 223.50074,438.14836 C 222.30714,439.88062 220.28034,445.32518 219.52334,448.83229 C 219.08784,450.85031 218.90034,453.22913 218.90644,456.65898 C 218.91604,461.9981 219.41374,464.47951 221.03714,467.28058 C 222.01944,468.97564 222.11224,469.79417 221.35504,470.08475 C 220.03544,470.59112 217.26054,468.45202 216.82144,466.58999 C 216.53244,465.36407 215.12134,464.61875 214.33114,465.2746 C 212.82484,466.5247 208.74324,475.0253 207.10944,480.31493 C 206.34414,482.79279 204.99734,491.22658 204.99584,493.55032 C 204.99474,495.31746 205.52634,496.29877 206.32024,495.99534 C 206.89014,495.77751 206.89304,495.81946 206.36294,496.62437 C 206.04414,497.1086 205.37554,497.53684 204.83824,497.60093 C 203.55774,497.75372 203.24194,498.57643 200.76174,508.22169 C 198.72454,516.14429 196.42664,522.42332 193.68134,527.56872 C 192.65094,529.50015 192.28944,529.88175 191.29814,530.08448 C 190.53804,530.23991 189.40614,531.03947 188.05934,532.37221 C 186.61944,533.79707 185.98904,534.23171 185.98904,533.7995 C 185.98904,533.4577 186.62594,531.10352 187.40444,528.56801 C 188.18294,526.03246 188.77604,523.91403 188.72234,523.86039 C 188.66864,523.80672 187.63694,525.00441 186.42964,526.52194 C 183.69654,529.95725 179.72814,534.38143 168.90634,546.0578 C 157.63374,558.22051 155.88584,560.16275 154.28734,562.30237 C 153.46654,563.40103 152.17414,564.55012 151.01014,565.21607 C 148.53574,566.63178 147.07614,568.31934 145.66864,571.39212 C 144.28144,574.42035 143.52464,577.73606 143.21684,582.1341 C 142.95444,585.88332 142.23024,589.18875 141.39054,590.47032 C 141.08234,590.94079 140.22334,591.63529 139.48164,592.01365 C 138.62024,592.45308 138.05034,593.03153 137.90394,593.61498 C 137.63704,594.67819 138.15924,595.14328 139.62884,595.15137 C 141.04894,595.15919 141.11894,595.87357 139.93044,598.22792 C 138.68744,600.69033 138.08504,602.92129 137.05324,608.88335 C 136.63444,611.3031 135.81574,614.47077 135.23384,615.92263 C 134.23734,618.40893 134.15334,619.00213 133.78884,626.12958 C 133.57594,630.29155 133.39974,637.73559 133.39724,642.67188 C 133.39284,651.32899 133.43264,651.85423 134.52044,657.49762 C 135.14064,660.71548 136.20474,665.12355 136.88504,667.29333 C 138.29024,671.77531 138.34564,672.36753 137.54574,674.36651 C 137.10714,675.46263 137.02394,676.39069 137.19694,678.25286 C 137.48864,681.39065 140.08594,689.31029 142.33814,693.92887 C 143.86384,697.05762 144.27044,697.60812 145.65454,698.41926 C 146.81684,699.10041 147.76334,700.15367 149.25014,702.42059 C 152.16564,706.86555 152.19444,706.89448 152.82114,705.99986 L 153.33224,705.27006 L 154.20844,706.08767 C 155.46934,707.26422 156.30254,709.08401 156.59724,711.30483 C 157.03144,714.57739 157.56334,715.44438 159.75114,716.446 C 162.03914,717.49345 163.49094,717.45037 163.98674,716.32032 C 164.69784,714.69959 165.87904,715.49148 168.18684,719.13603 C 168.89164,720.24911 169.58764,721.15982 169.73354,721.15982 C 169.87934,721.15982 170.86444,720.27234 171.92244,719.18763 C 172.98054,718.10294 176.30124,715.18094 179.30174,712.69435 C 182.30214,710.20772 185.28084,707.5316 185.92084,706.74736 C 188.33304,703.79192 188.95834,705.13448 188.94514,713.24063 C 188.93204,721.24957 188.37764,723.79297 185.97524,726.86448 C 185.01274,728.09506 184.24004,729.45438 184.23614,729.92383 C 184.23234,730.38849 184.65104,731.63088 185.16664,732.68466 C 186.10754,734.60783 186.40834,734.83882 189.43414,735.96139 C 190.07064,736.19759 190.74574,736.67919 190.93444,737.03169 C 191.46994,738.03229 190.36234,738.39469 185.54274,738.79599 C 180.35334,739.22799 48.221539,739.50129 29.717039,739.11829 z M 142.28194,583.98191 C 142.41434,583.05001 142.08784,582.98708 141.01594,583.73789 C 139.94694,584.48666 140.03324,585.01964 141.20164,584.88519 C 141.89464,584.80547 142.20144,584.54892 142.28194,583.98191 z M 239.75254,260.35437 C 239.55404,259.75883 237.48504,258.58423 236.94914,258.76285 C 236.29374,258.98132 238.25654,260.79109 239.14884,260.79109 C 239.58894,260.79109 239.83804,260.61085 239.75254,260.35437 z M 147.81814,170.89527 C 148.47444,170.41535 148.46504,170.38333 147.54384,169.96361 C 146.78054,169.61583 146.48144,169.61898 146.04724,169.97937 C 145.63394,170.32234 145.59974,170.54457 145.90384,170.91103 C 146.41324,171.5248 146.96344,171.52027 147.81814,170.89527 z M 208.86664,739.02669 C 207.75814,738.62659 207.61584,738.42339 207.44584,736.99819 C 207.34194,736.12709 206.97474,734.99013 206.62994,734.47166 C 206.02024,733.55493 206.02324,733.51815 206.73634,733.13652 C 207.13964,732.92066 208.63264,732.69494 210.05404,732.63497 C 211.47554,732.57496 212.82114,732.41295 213.04444,732.27498 C 213.26774,732.13701 213.97804,731.20307 214.62294,730.19959 C 216.26334,727.64725 217.67844,726.34773 221.61494,723.77882 C 225.34314,721.3458 229.87564,717.12874 230.86074,715.17643 C 231.39624,714.11519 231.11114,714.30233 228.80304,716.52745 C 227.32934,717.94801 225.92324,719.04072 225.67834,718.95568 C 225.34964,718.84154 225.26294,717.91162 225.34744,715.40489 C 225.45604,712.17872 225.42574,712.00876 224.74034,712.00876 C 224.33134,712.00876 222.75774,713.16908 221.10634,714.68844 C 216.57324,718.85893 208.32454,724.03111 207.01064,723.52688 C 206.69804,723.40697 206.25584,722.68643 206.02794,721.92576 C 205.68614,720.78505 205.71384,720.24218 206.18604,718.82746 C 207.31784,715.43636 210.06114,712.22845 232.19634,688.41236 C 236.07214,684.24226 238.92714,680.71016 238.64774,680.43081 C 238.26154,680.04463 236.52324,681.49958 231.18364,686.67806 C 228.03054,689.7361 225.11694,692.34405 224.70894,692.4735 C 222.82964,693.06997 222.35964,690.54449 223.91464,688.2052 C 225.64184,685.60668 230.09114,680.7379 233.15214,678.09658 C 238.70594,673.30431 242.91034,670.90357 247.70844,669.78482 C 251.56404,668.8858 254.33824,667.82357 259.23754,665.3702 C 264.34764,662.81136 267.21284,661.13281 270.22514,658.93342 C 271.54754,657.96781 273.33544,656.98016 274.19804,656.73864 C 275.06434,656.4961 276.07604,655.90604 276.45784,655.42068 C 278.10074,653.33209 278.94984,647.5325 278.20224,643.50695 C 277.95514,642.17656 276.11224,635.30704 274.10684,628.24136 C 270.22384,614.56 269.40394,612.44512 265.38864,605.75277 C 264.15694,603.69977 262.59114,600.91137 261.90924,599.55631 C 261.22724,598.20125 260.33194,596.7362 259.91964,596.30064 C 259.05894,595.39134 257.78964,595.24387 257.78964,596.05317 C 257.78964,596.35263 259.04594,599.25267 260.58154,602.4977 C 265.52564,612.94582 266.86624,616.78874 271.83414,634.75269 C 275.36024,647.50311 275.31814,647.26941 274.30024,648.44004 C 273.29834,649.59233 273.07394,649.58895 272.50334,648.41297 C 272.25074,647.89256 271.25224,647.00656 270.28434,646.44412 C 268.17044,645.21573 267.02974,644.20616 266.42004,643.02384 C 266.17044,642.53989 264.59844,636.62662 262.92664,629.88324 C 259.63364,616.60047 258.31014,612.60867 256.56924,610.70902 C 255.18784,609.20163 254.14214,609.32827 252.91164,611.15204 C 251.69954,612.94857 250.11984,617.81105 249.51814,621.59773 C 249.22964,623.4127 248.76654,625.72077 248.48894,626.72672 C 248.21134,627.7327 247.72574,631.66794 247.40984,635.47172 C 246.81954,642.58037 246.49274,644.24125 245.73274,643.99526 C 245.00234,643.75885 244.00304,639.21095 244.18514,636.95233 C 244.39724,634.32087 243.98374,634.60138 242.27474,638.24815 C 240.66234,641.68906 239.29984,645.90403 238.81554,648.95 C 238.49234,650.98238 238.31464,651.30921 236.81544,652.62887 C 235.91044,653.42543 234.97744,654.53524 234.74204,655.09508 L 234.31404,656.11296 L 233.23384,654.80249 C 231.74484,652.99607 231.05124,653.26061 227.53454,656.97569 C 223.53944,661.19623 221.12234,664.69602 221.25694,666.06519 C 221.41424,667.66564 222.27744,667.54988 224.46584,665.63488 C 226.67244,663.70387 228.77184,662.45974 229.16324,662.85113 C 229.91404,663.60197 225.83634,668.54724 221.64694,671.9665 C 220.32844,673.04266 218.22014,674.51384 216.96184,675.23575 C 213.92024,676.98089 206.65754,684.34303 203.41604,688.96702 C 200.42034,693.24036 197.86744,696.02158 196.12444,696.91081 C 195.40484,697.27791 194.73064,697.57824 194.62614,697.57824 C 194.12694,697.57824 194.60704,696.27126 196.57604,692.27041 C 199.26684,686.80301 200.13074,684.20569 201.28784,678.10401 C 201.79544,675.42673 202.94124,670.27926 203.83404,666.66518 C 205.18434,661.19876 205.46274,659.5024 205.49014,656.57445 C 205.52904,652.41322 205.28134,651.77725 202.12464,647.93261 C 200.94114,646.49104 199.65934,644.59888 199.27634,643.72777 C 198.89324,642.85666 197.64664,640.04563 196.50594,637.48101 C 191.45944,626.13465 189.75944,621.17027 186.47414,608.18481 C 185.22594,603.25147 184.05184,599.06222 183.86504,598.87536 C 183.64664,598.657 183.52524,600.50995 183.52524,604.06144 C 183.52524,613.90566 182.02834,610.4151 179.48014,594.62881 C 176.71444,577.49518 176.67034,572.34813 179.12724,553.44904 C 179.80674,548.22238 180.44384,543.45302 180.54304,542.85046 C 180.75814,541.54351 181.95824,540.30242 182.49144,540.83557 C 183.19894,541.54316 183.56684,549.57476 183.34304,559.43243 C 183.00044,574.53122 183.32934,577.87614 186.30894,589.59562 C 187.65254,594.88043 189.48544,602.92636 190.38194,607.47549 C 192.18074,616.60297 192.85744,619.0903 193.54184,619.0903 C 194.15564,619.0903 194.70524,617.58671 194.98754,615.13514 C 195.29654,612.45156 194.96304,610.77104 194.07554,610.53892 C 193.17794,610.30419 193.19484,609.77269 194.12954,608.83795 C 194.78264,608.18488 195.14134,608.11607 196.92264,608.30226 C 198.94714,608.51386 198.96744,608.50682 199.07704,607.55571 C 199.13784,607.02765 199.05804,605.1846 198.89954,603.46008 C 198.52954,599.4334 198.72354,598.59312 199.99284,598.72627 C 202.04274,598.94128 202.37824,597.83855 200.77364,596.1595 L 199.71994,595.05687 L 200.46934,593.84436 L 201.21864,592.6318 L 200.50314,591.34256 C 199.33014,589.22902 198.48464,583.62357 199.17124,582.51267 C 199.32774,582.25946 199.87504,582.19812 200.66154,582.3457 C 201.54084,582.51063 201.99454,582.43657 202.21254,582.09249 C 202.38194,581.825 202.52524,579.70554 202.53114,577.38258 C 202.54324,572.54505 202.80674,571.76066 204.79444,570.64571 C 205.54784,570.22308 206.30964,569.61749 206.48734,569.29994 C 206.91384,568.53787 206.21654,567.70358 205.15304,567.70358 C 204.26294,567.70358 203.23524,566.86305 203.23524,566.13509 C 203.23524,565.88079 203.60924,565.42771 204.06634,565.12819 C 205.21384,564.37629 205.36524,563.0503 205.37564,553.66032 C 205.38584,544.50208 204.99314,540.53594 203.68234,536.55478 C 202.82324,533.9457 202.75394,533.27412 202.73764,527.40372 C 202.71914,520.6924 203.09474,517.13668 204.48514,510.86141 C 206.14704,503.3611 206.94854,502.40714 209.33084,505.09424 C 210.64954,506.58174 210.69084,506.60043 210.46484,505.60878 C 209.87534,503.02124 209.68414,501.53437 209.94094,501.53437 C 210.57654,501.53437 212.32614,503.36525 213.11924,504.86022 C 213.58654,505.74111 214.08324,506.46187 214.22294,506.46187 C 214.36274,506.46187 214.52134,504.44441 214.57554,501.97866 C 214.65924,498.16995 214.76004,497.47894 215.24584,497.38581 C 216.10204,497.22169 218.59084,499.53582 221.69594,503.38303 C 223.21964,505.27093 225.27844,507.44212 226.27104,508.20796 C 228.70694,510.0872 231.86664,511.50297 233.19104,511.30858 C 234.38304,511.13362 234.53584,511.28602 234.73334,512.84642 C 234.92494,514.36039 234.40214,515.20986 232.85984,515.89063 L 231.56834,516.46074 L 235.24924,516.75663 C 237.27364,516.91942 239.33074,517.2446 239.82044,517.47932 C 241.86554,518.45954 240.70854,519.90836 237.37574,520.54042 C 234.99764,520.99139 233.99304,521.64323 233.36714,523.14105 C 233.09624,523.7895 232.56624,524.53869 232.18934,524.80598 C 231.13664,525.55246 230.68844,526.666 230.68844,528.5344 C 230.68844,532.08512 234.72794,538.15382 238.56874,540.37313 C 241.87834,542.28549 254.06054,547.05161 254.93204,546.775 C 255.30164,546.65769 256.05334,546.93817 256.76244,547.45798 C 258.15604,548.47959 259.71574,549.2531 261.06474,549.59169 C 261.91184,549.80428 262.01324,549.7323 262.01324,548.91839 C 262.01324,548.23399 262.23774,547.95066 262.91464,547.78077 C 265.21684,547.20295 275.51574,548.81748 279.94484,550.45052 C 284.12124,551.99043 286.24584,552.24212 290.58474,551.71101 C 292.80624,551.43908 294.63614,551.01873 295.19634,550.6517 C 295.83104,550.23579 296.45614,550.11587 297.17084,550.27285 C 298.30424,550.52179 298.96944,549.82058 298.96944,548.37682 C 298.96944,546.90156 300.09974,546.65793 308.82434,546.25265 C 318.68734,545.79446 322.90294,545.04678 322.90294,543.75564 C 322.90294,543.11021 320.30054,540.64671 318.99834,540.05953 L 317.59024,539.42458 L 319.89464,538.20813 C 321.16204,537.53908 322.19904,536.782 322.19904,536.52577 C 322.19904,535.81368 320.05454,535.33012 314.45584,534.77972 C 309.11254,534.25445 305.14904,533.67001 291.75414,531.43219 C 281.03094,529.64073 270.58104,528.28363 267.50934,528.28363 C 265.29844,528.28363 265.10084,528.2302 265.71854,527.79946 C 266.10034,527.53317 267.57714,526.98646 269.00034,526.58455 C 271.74574,525.80925 273.42074,524.93089 273.11064,524.42913 C 272.74644,523.83994 267.64704,521.93638 263.53464,520.85455 C 260.52124,520.06182 258.18744,519.69764 255.07384,519.53423 C 251.74054,519.35926 250.64214,519.17631 250.18654,518.72017 C 249.63744,518.17051 249.66154,518.07358 250.55314,517.24724 L 251.50764,516.36271 L 249.63314,515.46964 C 247.85204,514.62109 243.35914,511.22087 243.35914,510.72151 C 243.35914,510.59234 244.81234,510.60276 246.58844,510.74467 C 248.36464,510.88658 249.95604,510.91727 250.12494,510.81288 C 250.29384,510.70849 250.38494,510.2874 250.32724,509.87715 C 250.15794,508.67259 251.55284,508.23566 255.67784,508.20117 C 261.18544,508.15516 263.03494,507.81805 263.83944,506.71366 C 264.32884,506.04183 264.95074,505.73246 266.16414,505.55714 C 267.07514,505.42554 268.25034,505.06936 268.77564,504.76565 C 269.65104,504.25952 269.89854,504.26635 271.74204,504.84744 C 274.67214,505.77107 281.63894,509.00294 290.40274,513.50399 L 298.08944,517.4519 L 310.05624,517.24597 C 318.37394,517.10286 322.78384,516.88478 324.51804,516.53088 C 328.91114,515.6344 330.34454,514.72848 330.80564,512.55714 C 331.04354,511.43726 333.73974,508.57365 334.55634,508.57365 C 334.77974,508.57365 335.45644,508.87025 336.06004,509.23274 C 338.20744,510.5224 341.90894,510.45064 341.90894,509.11933 C 341.90894,507.70578 328.37894,502.75424 315.35504,499.40147 C 311.66634,498.45191 305.32234,496.63116 301.25714,495.35536 C 291.36774,492.25171 289.72654,492.02719 284.52324,493.06612 C 279.78094,494.01304 276.30864,495.51857 273.75734,497.73418 C 270.95324,500.16935 270.34064,500.32436 266.93024,499.46194 C 264.70184,498.89844 263.46894,498.78311 261.47514,498.95163 C 258.95704,499.16449 258.79824,499.12789 254.40794,497.32274 C 248.71664,494.98271 247.81714,494.35192 248.09094,492.8926 C 248.47744,490.83245 246.47204,489.76199 239.91374,488.52765 C 230.85214,486.82211 222.55014,486.30264 220.96404,487.34192 C 220.10134,487.90721 216.32374,488.10758 215.54964,487.62912 C 215.38344,487.52642 215.63314,487.05662 216.10464,486.58516 C 217.33404,485.35575 217.17294,484.99207 215.39874,484.99207 C 214.53904,484.99207 213.74184,484.84013 213.62704,484.65447 C 213.28054,484.09386 212.97954,479.84956 213.21864,478.89683 C 213.34144,478.40746 213.85794,477.51273 214.36624,476.90859 C 216.94104,473.84861 221.44694,473.41073 228.04864,475.57887 C 232.78964,477.13592 234.68994,477.43055 236.62694,476.90897 C 239.04724,476.25728 238.98284,475.22817 236.33464,472.23637 C 235.46374,471.25253 234.39914,470.44878 233.74084,470.27819 C 232.87134,470.05289 232.62424,469.79906 232.62424,469.13131 C 232.62424,468.34228 232.74374,468.28132 234.12004,468.36815 C 235.76644,468.47205 235.74964,468.49918 235.63044,465.91859 L 235.55424,464.26728 L 237.25694,464.15877 C 238.82324,464.05891 238.96854,463.97237 239.07134,463.07796 C 239.29234,461.15592 237.22924,457.55807 232.46354,451.55455 C 228.53034,446.59975 227.40504,444.70534 227.37244,442.98353 C 227.34914,441.75387 227.46224,441.50778 228.09194,441.41792 C 228.63244,441.34081 229.39474,441.92524 230.84644,443.52971 L 232.85374,445.7481 L 232.59784,442.05248 C 232.15824,435.70453 232.29544,433.75187 233.30204,432.03425 C 233.79094,431.2001 234.97304,429.8627 235.92914,429.06227 C 237.76304,427.52683 241.62994,425.07156 241.85694,425.29851 C 241.93054,425.3721 241.74674,426.37362 241.44864,427.52412 C 240.81954,429.95196 240.33674,436.2537 240.67624,437.60633 C 241.00514,438.91676 242.43064,438.89075 242.94614,437.56494 C 244.32884,434.00919 244.92734,431.05931 245.10554,426.92176 C 245.34194,421.43479 245.49714,421.34856 249.13464,424.68246 L 251.74374,427.07381 L 251.19344,428.13981 C 250.89084,428.72611 249.95454,430.05185 249.11294,431.08588 C 248.27124,432.11992 247.58264,433.12024 247.58264,433.30878 C 247.58264,434.46192 250.41204,437.95534 251.81744,438.53749 C 252.53394,438.83426 252.86214,439.21674 252.86214,439.75489 C 252.86214,441.04868 252.10774,442.86203 251.07044,444.06142 C 249.78334,445.54973 249.47744,447.73522 249.98684,451.80318 C 250.51934,456.05526 251.62024,459.32542 253.07224,460.96835 C 254.45284,462.53041 254.48724,462.36125 253.56854,458.52907 C 252.72284,455.00151 252.67384,451.73356 253.41294,448.15543 C 254.85694,441.16447 257.86254,437.68922 261.44284,438.8708 C 263.70344,439.61689 263.91934,440.85612 262.38014,444.25085 C 260.53054,448.33004 259.14334,457.73275 260.28684,458.43949 C 260.49884,458.5705 261.12594,458.34225 261.68044,457.93231 C 262.23494,457.52235 262.82234,457.18693 262.98584,457.18693 C 263.14924,457.18693 263.82024,457.74127 264.47694,458.4188 C 266.13604,460.13054 266.89124,460.01263 268.99234,457.71371 C 271.46724,455.00574 272.33184,452.58971 272.14534,448.90272 C 272.02394,446.50282 271.82424,445.75581 270.82784,443.97522 C 270.18194,442.82092 269.35464,441.30547 268.98944,440.60753 L 268.32534,439.33856 L 269.79804,436.50567 L 271.27064,433.67278 L 270.30634,432.02739 C 269.62774,430.86943 269.40794,430.11957 269.56444,429.49624 C 269.83784,428.40691 269.32644,427.74589 267.67744,427.05688 C 266.03374,426.3701 264.85574,425.25817 264.24004,423.81252 C 263.76674,422.70098 263.87404,421.28661 264.43174,421.28661 C 264.93674,421.28661 267.83394,423.31389 268.76234,424.31684 C 272.97534,428.86827 277.99034,434.66342 278.42704,435.48494 C 279.09114,436.73438 278.83124,437.47695 277.72974,437.47695 C 276.29364,437.47695 275.92414,438.28527 276.39694,440.3929 C 276.62344,441.40247 277.21054,443.09468 277.70164,444.15342 C 278.86374,446.65863 279.38314,450.80547 279.11364,455.42711 C 278.87074,459.59249 278.42424,461.53959 276.88734,465.13445 C 275.54244,468.28023 275.24434,469.63585 275.70734,470.50091 C 276.11904,471.27013 279.97164,474.1664 282.51954,475.62212 C 286.48144,477.88567 290.63164,478.82661 306.86654,481.14215 C 312.17074,481.8987 316.18434,481.80585 318.20144,480.88001 C 318.80974,480.60079 319.99764,480.42189 320.84124,480.48243 C 322.29324,480.58664 322.37354,480.64877 322.34844,481.64841 C 322.33384,482.22915 322.10514,483.6898 321.84014,484.89433 C 321.57514,486.09886 321.47394,487.20001 321.61524,487.34136 C 322.03124,487.75734 327.84544,487.53849 329.15634,487.0575 C 329.76644,486.83365 329.93594,486.52347 329.87634,485.74024 C 329.81804,484.97482 330.06964,484.4875 330.87144,483.81275 C 333.63144,481.49038 335.84294,472.40859 334.35104,469.52351 C 333.55454,467.98324 331.18524,466.14757 328.95994,465.34654 C 327.85474,464.94875 324.54534,464.06655 321.60564,463.38617 C 315.99264,462.08707 312.99354,460.86431 312.31624,459.59879 C 312.09354,459.18256 311.46384,457.03284 310.91704,454.82166 C 310.37014,452.61048 309.35884,449.69133 308.66964,448.33468 C 307.98044,446.978 307.41654,445.72227 307.41654,445.5441 C 307.41654,444.84535 308.57474,445.28467 310.27424,446.62801 C 311.68074,447.73979 312.35174,448.03587 313.46514,448.03587 C 315.36794,448.03587 316.34784,447.25979 319.04694,443.6153 L 321.31884,440.54759 L 322.02284,444.81318 L 322.72694,449.07877 L 324.08374,446.59169 C 325.76414,443.51144 327.18694,441.86355 328.93674,440.97089 C 329.67864,440.59239 332.61404,439.89448 335.45994,439.41997 C 342.10204,438.31248 342.36734,438.4653 339.35834,441.66588 C 337.03704,444.13498 334.88254,447.83753 335.44174,448.39666 C 335.61934,448.57437 336.78894,448.76415 338.04074,448.81839 L 340.31664,448.91704 L 340.54424,450.50802 C 340.66934,451.38308 341.16774,453.36259 341.65174,454.90694 C 342.13574,456.45132 342.64174,458.22941 342.77614,458.85833 C 343.03424,460.06525 344.10804,461.05853 345.15494,461.05853 C 345.49904,461.05853 345.78054,460.82993 345.78054,460.55054 C 345.78054,459.84957 347.00284,459.05895 349.10844,458.398 C 352.61764,457.29639 352.55114,457.37727 352.41354,454.3817 L 352.29194,451.73149 L 353.23404,451.82877 C 354.16174,451.92454 354.17054,451.90571 353.80964,450.5969 C 353.60804,449.86587 353.15764,448.54301 352.80884,447.65726 C 352.15604,445.99965 352.32004,445.05044 353.20094,445.3885 C 353.88374,445.6505 355.76474,448.48543 356.86944,450.91729 C 357.87814,453.13807 359.48614,460.67066 359.49894,463.23539 C 359.51154,465.76685 359.02724,466.60309 355.45964,470.20959 C 352.06084,473.64532 351.16224,475.07204 351.73164,476.12804 C 352.19054,476.97916 353.57864,478.21814 355.49674,479.48887 C 357.55924,480.85516 358.55634,482.1646 358.37594,483.26984 C 358.24234,484.08868 358.21934,484.08006 357.55294,482.96018 C 357.09534,482.19121 356.63964,481.84016 356.18224,481.90429 C 355.57024,481.9901 355.49504,482.30117 355.47834,484.81609 L 355.45964,487.6318 L 353.96974,487.73975 C 352.34184,487.85765 351.41204,488.7426 351.41204,490.17386 C 351.41204,491.08988 351.98404,491.18593 352.97514,490.43632 C 353.35094,490.15211 353.88154,489.91956 354.15444,489.91956 C 354.81024,489.91956 354.57474,492.38127 353.73354,494.31911 L 353.12244,495.72697 L 354.94674,493.88292 C 355.95004,492.86874 356.91144,492.12574 357.08314,492.2319 C 357.97564,492.78349 356.57624,496.30577 353.54044,501.14869 C 352.76334,502.38841 352.03334,503.97225 351.91834,504.66833 C 351.58754,506.66945 351.49114,506.81559 350.35194,507.04345 C 349.23244,507.26734 348.59634,508.04817 348.59634,509.19821 C 348.59634,510.61997 346.37844,514.16759 343.48944,517.36708 C 341.83174,519.20299 340.01634,521.49956 339.45524,522.47055 C 338.89424,523.44159 337.07624,525.81294 335.41544,527.7403 C 333.75454,529.66765 332.44984,531.40987 332.51594,531.6119 C 332.58204,531.81393 333.13664,532.02873 333.74834,532.0892 C 334.97364,532.21031 335.92564,533.26212 335.92564,534.4947 C 335.92564,534.92096 335.42904,536.50916 334.82204,538.02401 C 334.21514,539.5389 333.26014,542.52056 332.69984,544.64994 C 330.87194,551.59687 329.63534,554.52042 327.02784,558.05956 L 325.44614,560.20632 L 327.73924,562.25729 C 330.22864,564.48388 331.33014,566.39878 331.34234,568.52091 C 331.34664,569.26084 330.96394,571.55741 330.49194,573.62438 C 328.81044,580.98785 328.38854,586.45146 327.66054,610.2912 C 326.34694,653.30284 326.49214,650.51613 325.48794,651.98924 C 324.20404,653.87278 325.38874,671.07726 327.29534,678.23762 C 330.97274,692.04776 331.07944,692.3318 333.62134,695.07648 C 334.44744,695.9685 335.30384,697.04428 335.52444,697.46713 C 336.01274,698.40289 336.04684,699.58894 335.59014,699.7487 C 335.40564,699.81321 335.15054,700.52228 335.02324,701.3244 C 334.80654,702.68925 334.88124,702.86988 336.18704,704.14011 C 337.30654,705.22909 337.63314,705.84534 337.83894,707.25725 C 338.15934,709.45445 339.11324,711.66426 340.49374,713.40729 C 342.86434,716.40042 348.00854,731.65316 348.49134,737.12029 L 348.70414,739.53019 L 289.78424,739.34379 C 254.49004,739.23209 229.96774,739.02039 228.62834,738.81579 C 225.86854,738.39419 225.45404,738.04699 226.25364,736.82659 L 226.85094,735.91489 L 224.63414,737.03699 C 223.41484,737.65419 221.62534,738.38149 220.65744,738.65329 C 218.17844,739.34959 210.43984,739.59469 208.86664,739.02669 z M 272.57214,440.16416 C 272.57214,439.44316 271.18994,437.82891 270.57264,437.82891 C 270.15894,437.82891 270.08894,438.05565 270.27444,438.79484 C 270.40784,439.3261 270.68194,439.95963 270.88364,440.2027 C 271.37474,440.79442 272.57214,440.76707 272.57214,440.16416 z M 459.49094,737.30159 C 459.00554,734.79149 458.39824,733.6343 457.40034,733.31757 C 456.00094,732.87342 455.82114,731.45927 456.06264,722.80184 C 456.28044,714.99443 456.95284,705.31004 457.66714,699.69002 C 458.60494,692.31283 458.44144,683.99603 457.16574,674.17264 C 455.68714,662.78711 455.45084,657.98653 455.44234,639.15224 C 455.43194,615.94466 455.89534,608.45061 458.41314,591.10917 C 461.72914,568.27084 461.75524,567.89262 461.73714,542.89013 C 461.72084,520.41561 461.58124,517.40727 460.00624,505.58196 C 458.81384,496.62937 458.31464,491.06112 458.57824,489.65566 C 458.77884,488.5864 458.90434,488.47137 459.66294,488.66179 C 460.72244,488.9277 460.75624,488.44741 459.97354,484.23904 C 459.36864,480.98605 456.73684,471.2324 456.35874,470.842 C 456.22684,470.70586 454.32514,471.84886 452.13264,473.38201 C 449.94014,474.91517 446.69434,476.90183 444.91964,477.79684 C 443.14504,478.69185 441.57614,479.60783 441.43334,479.83235 C 441.29044,480.05687 441.17114,480.89729 441.16814,481.69994 C 441.16084,483.67534 439.53294,485.1633 436.99744,485.51199 C 435.95494,485.65538 434.98644,486.0298 434.62504,486.42907 C 433.64654,487.51034 432.38154,487.23095 428.90184,485.16496 C 423.51904,481.96902 423.17714,481.84143 418.54174,481.29779 C 413.80044,480.74172 408.58704,479.52653 405.37264,478.2282 C 403.19834,477.34995 400.65494,475.9391 395.99094,473.02403 C 392.78604,471.02094 390.62884,470.50443 389.24744,471.4095 C 388.49294,471.90391 388.36944,472.24665 388.37704,473.82535 C 388.38184,474.83717 388.74994,477.33239 389.19504,479.37026 C 389.64014,481.40813 389.94184,483.26294 389.86544,483.49207 C 389.77754,483.7559 389.33914,483.83119 388.67024,483.69741 L 387.61394,483.48616 L 387.86514,484.85505 C 388.00334,485.60794 388.64644,487.72859 389.29424,489.5676 C 391.34274,495.38229 390.69634,495.19188 387.50194,489.03965 C 386.39634,486.91027 385.04924,484.6929 384.50844,484.11216 C 383.05544,482.5518 382.67534,481.61744 382.36384,478.83943 C 382.04114,475.96152 381.12174,473.37726 380.42064,473.37726 C 379.79614,473.37726 379.14834,475.72074 377.84234,482.70431 C 376.37204,490.56693 376.09084,492.93977 375.83054,499.67977 C 375.37634,511.44036 376.78854,518.79778 381.48504,529.14076 L 382.43364,531.22974 L 380.73744,529.34786 C 376.68044,524.84684 375.99354,523.37904 374.08394,515.13059 C 372.18624,506.9336 371.73524,502.22045 372.17644,495.19902 C 372.69664,486.92111 372.95524,484.64014 373.37344,484.63947 C 373.58694,484.63912 374.20724,483.93364 374.75174,483.07169 C 375.63374,481.67562 375.74114,481.18583 375.73534,478.58478 C 375.73184,476.97891 375.32984,472.23437 374.84204,468.04135 C 373.85844,459.58609 373.10814,456.7091 370.00724,449.50243 C 367.91734,444.64568 366.19454,440.08525 366.19454,439.41046 C 366.19454,439.10668 366.54004,438.95277 367.12824,438.99451 C 367.88644,439.04833 368.11554,438.86647 368.34734,438.02672 C 368.70724,436.7229 368.16794,432.70699 367.02104,428.14991 C 365.71914,422.97699 365.44184,419.44373 365.88854,413.71939 C 366.10004,411.00927 366.38744,408.66776 366.52724,408.51603 C 366.66704,408.36429 367.86164,410.14808 369.18194,412.48002 C 370.50224,414.81196 371.64264,416.65977 371.71614,416.58621 C 371.78964,416.51268 371.67514,415.67919 371.46144,414.734 C 370.92674,412.36743 370.06434,405.29168 370.07404,403.34983 L 370.08204,401.75262 L 371.29394,403.68842 C 371.96064,404.75311 373.32574,407.24765 374.32754,409.23185 C 375.32944,411.21605 376.36014,412.83948 376.61804,412.83948 C 377.20974,412.83948 383.78574,407.55541 389.02724,402.86824 C 396.36874,396.30306 400.62914,390.78528 406.05844,380.81077 C 407.69164,377.81028 409.55714,374.48422 410.20394,373.41953 C 411.73244,370.90358 414.37094,367.43614 414.75684,367.43614 C 415.45374,367.43614 421.05984,361.71571 424.22154,357.77854 C 428.42814,352.53994 431.31914,348.22635 432.75384,345.04742 C 434.37504,341.45525 436.65784,338.4745 439.50744,336.22915 C 440.90184,335.1304 442.11334,334.17463 442.19964,334.10521 C 442.28594,334.03579 441.17724,332.7778 439.73594,331.30968 C 438.00444,329.54609 436.47514,328.35105 435.22874,327.78769 C 434.19124,327.31871 432.12024,325.89625 430.62654,324.62666 C 429.13284,323.35707 426.34364,321.42256 424.42834,320.32775 C 422.31944,319.12223 420.73814,317.96476 420.41894,317.39287 C 419.94624,316.54598 419.97504,315.42035 420.69854,306.48199 C 422.04464,289.85133 422.56574,286.1716 424.47124,279.84053 C 425.13404,277.63823 425.67984,275.50005 425.68414,275.08902 C 425.68834,274.678 425.99734,273.66857 426.37084,272.84585 C 426.90344,271.67241 427.23734,271.35001 427.92014,271.35001 C 428.75904,271.35001 428.78824,271.27126 428.72924,269.16206 C 428.67624,267.26787 428.75784,266.95589 429.33644,266.83838 C 429.76554,266.75126 430.42084,267.15672 431.16634,267.97044 C 432.95294,269.92055 434.09674,269.5921 433.46654,267.30992 C 433.27914,266.63131 433.24944,265.99972 433.40044,265.90638 C 433.87874,265.6108 438.77734,267.12354 441.37724,268.36968 C 445.92114,270.5476 449.03824,273.35864 452.35064,278.2658 C 453.81804,280.43979 455.63384,281.90596 456.86674,281.91236 C 459.32334,281.92511 464.07464,285.75385 468.43704,291.23597 C 475.02714,299.51775 480.60064,309.30979 485.00754,320.34822 C 487.50134,326.59482 488.88434,328.88744 492.09664,332.09972 C 496.31314,336.3162 507.31104,344.79324 510.42964,346.23042 C 512.55154,347.20833 513.86774,347.1859 517.53894,346.1093 C 520.86264,345.13461 528.24044,345.20987 533.90524,346.27624 C 539.87904,347.40076 546.04934,348.99327 549.74364,350.36395 C 554.83174,352.25181 556.37964,352.6102 563.45554,353.53874 C 575.62834,355.13612 584.05704,356.84706 586.90114,358.298 C 587.63244,358.67108 590.07604,360.09073 592.33124,361.45276 C 594.58654,362.81479 597.09294,364.26386 597.90114,364.67294 C 600.04684,365.75903 608.94024,371.72767 612.86114,374.71314 C 614.72334,376.13102 616.40934,377.29053 616.60784,377.28983 C 617.38284,377.28698 619.23434,375.8504 622.85354,372.44378 C 629.16534,366.50273 631.10754,365.51635 636.50074,365.5128 C 640.68924,365.51005 643.67134,366.38331 647.66024,368.78068 C 651.35774,371.00294 653.92954,373.20955 657.24124,377.00094 C 660.69394,380.95381 662.09594,383.61441 665.04064,391.80193 C 666.36944,395.4966 667.78274,398.86651 668.18114,399.29063 C 668.58604,399.72165 669.74474,400.24952 670.80834,400.48755 C 675.42184,401.52001 676.72164,403.9034 678.21634,414.07135 C 679.88174,425.40001 685.72314,437.88498 689.74654,438.71509 C 692.29994,439.24191 694.24264,441.18732 698.35174,447.33194 C 701.68274,452.31297 702.83874,455.23624 705.79814,466.162 C 707.52294,472.52998 709.13114,480.43639 709.91464,486.39993 C 710.68134,492.23647 710.42924,499.21518 709.19614,506.28588 C 707.48474,516.09955 707.61014,519.26297 709.99124,526.34276 L 711.29504,530.21943 L 711.51304,527.5797 C 711.63284,526.12785 711.75244,522.7226 711.77884,520.01247 C 711.80514,517.30235 711.92794,513.55528 712.05174,511.68564 L 712.27684,508.28631 L 714.90204,509.21176 C 720.14204,511.05897 722.79584,515.6143 724.16744,525.11595 C 724.78904,529.42212 724.69454,540.51437 723.98434,546.58575 C 722.09054,562.77777 719.91264,567.57089 709.43104,578.61446 C 701.81564,586.63818 701.25604,587.59298 696.22244,601.15514 C 690.65564,616.15404 685.89804,626.21831 682.25354,630.70511 C 681.07424,632.15696 679.74374,634.14636 679.29674,635.12599 C 678.84984,636.10561 677.29674,638.24379 675.84544,639.8775 C 674.39424,641.51121 672.32414,644.22231 671.24534,645.90217 C 670.16654,647.58202 668.96664,649.12626 668.57884,649.33382 C 667.31754,650.00885 666.28694,649.77015 665.30514,648.57554 L 664.36664,647.4336 L 662.42844,648.09244 C 661.36234,648.45479 660.24724,648.65805 659.95034,648.54411 C 659.65334,648.43015 659.00824,647.69982 658.51664,646.92117 C 657.28424,644.9688 656.25364,644.3933 653.43584,644.08399 C 652.10264,643.93765 650.83584,643.70908 650.62054,643.57607 C 649.91184,643.13806 650.21084,642.36982 651.46114,641.41614 C 653.64244,639.75244 652.78594,638.45954 649.92804,639.10166 C 647.54564,639.63697 647.41244,639.07062 648.89934,634.72974 C 649.59134,632.70979 650.03114,631.05707 649.87674,631.05707 C 649.72234,631.05707 648.81984,631.90636 647.87114,632.94437 C 646.11074,634.87053 645.30614,636.71317 645.29634,638.8411 C 645.28924,640.36884 644.54484,643.40727 643.61524,645.70303 C 642.55154,648.32966 641.73794,652.53992 641.48034,656.75043 L 641.25424,660.44605 L 638.26254,656.64984 C 634.05474,651.31044 633.18114,649.5104 633.22994,646.27951 C 633.25114,644.87605 633.12914,643.72777 632.95884,643.72777 C 632.78854,643.72777 632.38824,644.23242 632.06924,644.84923 C 631.10614,646.71179 631.57684,649.36292 633.78774,654.52666 C 634.85014,657.008 635.91254,659.68412 636.14864,660.47358 C 636.38474,661.26303 637.50584,663.07325 638.63994,664.49621 C 640.17494,666.42205 640.77264,667.49476 640.97814,668.69225 C 641.27484,670.42117 641.31864,681.95953 641.14404,712.36072 C 641.06494,726.1274 641.14874,731.94023 641.44074,732.95061 C 642.31694,735.98219 642.28454,736.54999 641.17114,737.66329 C 640.02704,738.80749 637.57494,739.63069 636.27944,739.30559 C 635.22054,739.03979 635.20184,738.11559 636.15074,732.95061 C 636.53794,730.84333 636.84834,727.92228 636.84064,726.45937 C 636.82694,723.87571 636.81114,723.82788 636.29044,724.78843 C 635.99554,725.33232 635.55004,727.35481 635.30034,729.28286 C 635.05074,731.21096 634.73044,732.90415 634.58874,733.0455 C 634.16184,733.47141 632.68274,731.45765 632.25294,729.86533 C 631.64294,727.60554 631.23824,724.41577 631.23034,721.80673 C 631.22154,718.905 630.36834,714.30377 629.63014,713.17707 C 629.16814,712.47194 628.88734,712.37086 627.90344,712.55546 C 627.25714,712.67672 626.64854,712.64289 626.55094,712.48032 C 626.45344,712.31775 626.54584,711.35291 626.75634,710.33619 C 627.04104,708.96093 627.03494,708.38353 626.73234,708.08095 C 626.10594,707.45456 625.36504,708.26932 625.10974,709.86519 C 624.82344,711.6563 623.93174,712.01953 622.86514,710.7796 C 622.42904,710.27256 622.07224,709.62899 622.07224,709.34939 C 622.07224,708.27108 621.37664,708.91208 621.00064,710.33693 C 618.77634,718.76639 614.85194,726.01435 609.79374,731.03529 C 605.32764,735.46849 603.41814,736.52599 603.41814,734.56626 C 603.41814,733.27241 602.77154,733.46391 600.42824,735.4518 L 598.09094,737.43479 L 598.27974,736.24859 C 598.38364,735.59618 598.64894,733.34414 598.86954,731.24408 C 599.09004,729.14401 599.64244,726.22018 600.09704,724.74672 C 600.55164,723.27322 600.84824,721.99225 600.75604,721.9001 C 600.40954,721.5536 596.39444,726.07996 595.52314,727.7993 C 594.62634,729.56901 593.24324,730.66284 591.90214,730.66284 C 591.55014,730.66284 590.00094,731.29638 588.45964,732.0707 C 586.91834,732.84502 585.45624,733.47855 585.21064,733.47855 C 584.38694,733.47855 584.73884,731.11297 586.32224,726.00784 C 589.17484,716.81036 591.50804,708.70414 592.32694,705.14546 C 592.77234,703.20966 593.45554,700.42507 593.84504,698.95748 C 594.66694,695.86052 595.88914,687.11622 595.54774,686.77485 C 595.11484,686.34194 594.30574,687.88716 592.56314,692.47476 C 589.81474,699.71016 580.91654,727.69723 579.05944,734.94712 C 578.47694,737.22099 578.08734,738.11499 577.61354,738.26539 C 575.27754,739.00679 565.71044,739.17319 515.39274,739.34799 L 459.92394,739.54069 L 459.49094,737.30159 z M 690.70514,675.46238 C 690.70514,675.24803 691.10114,674.17729 691.58504,673.083 C 692.66444,670.64224 692.72134,669.23114 691.76104,668.7172 C 691.37384,668.51 691.05714,668.14262 691.05714,667.90079 C 691.05714,667.04946 688.97584,666.1586 687.52794,666.39016 C 685.79984,666.66645 684.36984,666.1378 684.36984,665.2227 C 684.36984,664.83979 686.30434,661.94535 688.66864,658.79066 C 696.96574,647.72013 702.02484,638.63257 706.05664,627.55658 C 707.83444,622.67305 709.05524,618.2805 711.62634,607.51713 C 714.33134,596.19329 716.33814,589.03663 719.01494,581.16841 C 721.04394,575.20431 722.11634,572.78998 723.87784,570.22068 L 724.92714,568.6902 L 726.64234,570.37959 C 728.37714,572.08834 729.06464,573.4906 728.95394,575.09482 C 728.89914,575.88966 729.03774,575.98518 730.38744,576.08289 C 732.71134,576.25109 732.73174,576.35872 732.46654,587.05251 C 731.88614,610.45339 729.23744,627.08548 723.72104,641.96795 C 721.73794,647.31808 716.03464,658.65062 713.94564,661.39182 C 710.37284,666.08012 702.27584,672.06516 696.23824,674.48061 C 693.55144,675.55548 690.70514,676.06051 690.70514,675.46238 z M 260.09704,660.65378 C 259.69834,660.0087 260.37034,659.19532 262.29824,657.98938 C 264.49234,656.61693 269.36984,654.48674 269.65814,654.775 C 270.28194,655.39879 268.54204,656.91209 264.04854,659.65414 C 261.94314,660.93891 260.49904,661.30425 260.09704,660.65378 z M 368.18164,597.80215 L 366.08494,595.52006 L 364.56374,596.92224 C 363.22484,598.15641 362.83744,598.32443 361.33104,598.32443 C 359.08994,598.32443 356.22024,596.8911 352.94994,594.13828 C 350.37594,591.97166 347.42604,588.58728 347.71044,588.12716 C 347.79914,587.98352 348.68844,587.76928 349.68644,587.65109 C 354.11344,587.12677 355.13414,584.29195 353.35774,577.45505 C 352.87934,575.61354 352.23074,573.41841 351.91644,572.57701 C 350.53264,568.87175 351.01614,568.04808 353.66414,569.59989 C 356.28424,571.13537 359.85914,576.22156 359.85914,578.41387 C 359.85914,579.62396 360.50384,579.88596 361.36434,579.02552 C 362.02574,578.36418 362.06044,578.11942 361.73274,576.43108 C 361.53374,575.40578 360.99824,573.20224 360.54274,571.53432 C 359.77164,568.71062 359.75474,568.4616 360.29794,567.91838 C 360.84124,567.37516 360.91074,567.39012 361.30764,568.13523 C 362.11504,569.65092 364.27744,570.92479 366.51834,571.20481 C 367.37394,571.3117 368.13164,571.57349 368.20194,571.78657 C 368.27234,571.99961 367.68594,572.94992 366.89894,573.89835 C 365.11684,576.04593 365.11664,577.12055 366.89844,577.96188 C 367.57594,578.28182 368.86034,578.64121 369.75264,578.76056 C 371.42784,578.98462 372.36374,579.68862 372.58404,580.8905 C 372.69744,581.50887 372.86544,581.44316 374.15894,580.27456 C 375.95354,578.65317 376.89634,578.5971 377.65624,580.06655 C 378.31824,581.34682 378.19404,583.28459 377.29824,585.64803 C 376.96934,586.51597 376.32604,589.05011 375.86874,591.27945 C 374.46784,598.10871 373.45234,600.08425 371.34274,600.08425 C 370.48314,600.08425 369.87474,599.64504 368.18164,597.80215 z M 351.50004,585.06866 C 350.89684,584.82532 350.92664,582.83802 351.53344,582.83802 C 352.25174,582.83802 353.28474,584.148 353.04954,584.76073 C 352.84214,585.30135 352.32924,585.40328 351.50004,585.06866 z M 199.72094,575.68999 C 199.71764,574.65001 199.85134,574.08127 200.06754,574.21491 C 200.51514,574.49152 200.51514,576.16208 200.06754,576.85464 C 199.82114,577.23599 199.72484,576.91257 199.72094,575.68999 z M 372.70584,575.97251 C 371.93154,575.4937 371.02084,575.00267 370.68204,574.88135 C 370.18044,574.70171 370.06614,574.23215 370.06614,572.3527 L 370.06614,570.04463 L 371.03404,570.8979 C 371.56634,571.3672 372.33684,572.13913 372.74624,572.6133 C 373.15564,573.08746 374.02674,573.65511 374.68204,573.87477 C 375.97464,574.308 376.43274,575.4408 375.68144,576.34605 C 375.08294,577.06715 374.32144,576.97156 372.70584,575.97251 z M 364.59464,565.43183 C 363.54334,564.38048 363.43934,563.12805 364.40334,563.12805 C 365.14484,563.12805 366.89844,565.00236 366.89844,565.79477 C 366.89844,566.59067 365.53944,566.37657 364.59464,565.43183 z M 360.39694,558.85204 C 357.43684,555.33416 354.29344,545.75634 353.71434,538.49058 C 353.55924,536.54534 353.19094,534.86936 352.66144,533.69919 C 351.88034,531.9733 351.44734,531.53721 347.89394,528.89766 C 346.29414,527.70922 345.77904,526.7365 346.41374,526.10184 C 346.91674,525.59888 348.02654,526.27268 350.89024,528.81956 C 352.24874,530.02771 353.67424,531.07452 354.05794,531.14576 C 355.02844,531.32597 357.17894,535.55386 358.06884,539.03116 C 358.46344,540.57283 359.26414,544.44757 359.84814,547.64164 C 360.43224,550.83571 361.22794,554.55723 361.61654,555.91166 C 362.79344,560.01472 362.32524,561.14364 360.39694,558.85204 z M 378.03544,540.59243 C 377.48234,540.42666 376.73334,540.02278 376.37104,539.69489 C 375.34194,538.76356 373.72044,533.91505 374.43804,533.91505 C 374.51964,533.91505 375.94904,534.62777 377.61434,535.49888 C 379.27974,536.36999 381.01074,537.08272 381.46114,537.08272 C 383.05404,537.08272 387.55254,539.92898 387.10474,540.65354 C 386.86584,541.04003 379.36034,540.98945 378.03544,540.59243 z M 362.35264,516.05288 C 361.36194,512.31077 360.87734,505.40597 361.60544,505.40597 C 362.33004,505.40597 363.37874,510.84607 363.37874,514.60508 C 363.37874,517.56889 362.92384,518.21077 362.35264,516.05288 z M 358.82314,490.11955 C 358.20144,489.37036 358.82554,487.53497 360.60964,484.86621 C 361.91924,482.90721 362.22354,482.63877 362.79054,482.9422 C 363.47304,483.30747 363.47244,483.36533 362.75594,486.57591 C 362.00914,489.92175 360.09234,491.64887 358.82314,490.11955 z M 299.58534,461.73849 C 298.85944,461.35527 298.26544,460.93267 298.26544,460.79938 C 298.26544,460.66609 298.66594,460.2343 299.15534,459.83989 C 300.31154,458.90803 300.61704,456.47328 300.02144,452.93538 C 299.69674,451.00619 299.05924,449.3118 297.58224,446.45203 C 295.47924,442.38044 294.47244,439.74486 294.86854,439.34866 C 295.46884,438.74835 299.22984,443.34317 301.54294,447.50292 C 303.48774,451.00035 304.62204,454.46776 304.82594,457.53889 C 304.97514,459.78643 304.89384,460.34858 304.27824,461.3225 C 303.66714,462.28935 303.35024,462.46399 302.23024,462.45083 C 301.50144,462.44227 300.31124,462.12171 299.58534,461.73849 z M 367.71854,461.13783 C 367.49214,460.99377 366.70984,459.77041 365.98004,458.41926 C 365.25024,457.06807 363.34924,453.96121 361.75544,451.51513 C 360.16164,449.06902 358.38994,446.13723 357.81824,445.00004 C 356.83654,443.0472 356.08294,440.64462 356.45204,440.64462 C 356.54464,440.64462 357.53084,442.10967 358.64344,443.90029 C 359.75614,445.69091 361.62094,448.41014 362.78754,449.94302 C 365.10024,452.98187 369.36214,460.08559 369.36214,460.90155 C 369.36214,461.44041 368.40954,461.57736 367.71854,461.13783 z M 287.68744,458.65388 C 286.82684,458.10566 285.52174,456.9887 284.78714,456.17176 C 282.29254,453.39733 282.18104,451.85214 284.25304,448.76654 L 285.72694,446.57152 L 285.11724,444.28326 C 284.17604,440.7513 282.88184,434.14551 282.26614,429.73093 C 281.62974,425.16825 281.88774,424.24624 283.30694,426.01081 C 284.89994,427.99152 286.40774,431.71132 287.59804,436.59704 C 288.25834,439.30716 289.11664,442.38734 289.50554,443.44189 C 290.34034,445.70611 292.38184,448.61231 293.35434,448.92098 C 294.09524,449.15613 294.22094,449.8414 294.06324,452.78738 C 293.90454,455.75457 292.61334,458.0315 290.45174,459.15616 C 289.26214,459.77513 289.52154,459.82226 287.68744,458.65388 z M 316.21564,406.7649 C 315.73164,406.51335 315.12694,405.87214 314.87174,405.33994 C 314.15944,403.85441 314.86134,402.33118 317.46294,399.71675 C 320.41514,396.75005 320.42464,396.29947 317.53614,396.24146 C 315.67414,396.20408 313.45224,397.27937 307.39584,401.14879 C 301.83334,404.70267 299.64914,405.8002 298.13884,405.8002 C 296.77574,405.8002 296.35454,405.18761 296.83994,403.91093 C 297.15714,403.0766 297.94424,402.36817 300.59164,400.53415 C 301.84834,399.66357 302.06164,399.32203 302.21874,397.92807 C 302.34954,396.76782 302.94764,395.47788 304.38014,393.26649 C 306.39264,390.1597 306.88274,388.35237 305.92064,387.58558 C 305.67874,387.3927 304.69154,387.12053 303.72704,386.98069 C 301.20744,386.61546 298.49474,385.51469 292.10614,382.26533 L 286.47464,379.40105 L 292.45804,379.58196 C 295.74894,379.68142 300.73804,379.83368 303.54494,379.92023 L 308.64844,380.07766 L 304.77684,379.256 C 297.92594,377.80204 295.11164,376.30612 294.33204,373.70405 C 294.01564,372.64774 293.63164,372.14764 292.93544,371.88482 C 292.10614,371.57182 292.00364,371.38004 292.18394,370.47873 L 292.39264,369.43505 L 289.60964,369.65446 C 288.07904,369.77512 284.84684,370.28649 282.42714,370.79085 C 279.05834,371.49298 277.49334,371.65675 275.74764,371.48978 C 273.21014,371.24707 272.51274,370.79602 271.44724,368.70824 C 270.63644,367.11952 270.90654,366.75622 272.92404,366.72229 C 275.11334,366.68544 277.18934,366.13014 278.32554,365.27741 C 279.34384,364.51315 279.69664,364.45652 282.60304,364.59101 C 288.79474,364.87743 289.22104,364.8459 290.38554,364.01526 C 292.32634,362.63081 300.38524,361.83069 314.45584,361.62546 C 324.83774,361.47401 328.01074,361.17266 331.33464,360.02238 C 333.63214,359.22729 334.16574,359.31989 334.16574,360.51365 C 334.16574,361.58597 331.82484,365.47148 330.11824,367.23176 C 327.46244,369.97109 327.01544,370.07235 317.44754,370.10241 C 307.18304,370.13468 306.36064,370.16868 306.36064,370.56112 C 306.36064,370.88789 307.70394,371.47503 309.17634,371.7918 C 309.66034,371.89591 310.37304,372.22253 310.76014,372.51766 C 312.00564,373.46694 310.78284,373.81119 306.56644,373.69832 C 303.82354,373.62493 302.68454,373.7157 302.58414,374.01575 C 302.21904,375.10677 308.72634,375.80503 320.47554,375.93565 L 329.13504,376.03187 L 332.88064,372.645 C 339.94504,366.25717 343.11154,364.26847 346.21854,364.26847 C 349.00814,364.26847 349.65224,364.86631 349.65224,367.4561 C 349.65224,368.6066 349.79464,369.54792 349.96884,369.54792 C 350.14294,369.54792 351.12864,368.91439 352.15914,368.14007 C 354.39314,366.46145 355.98754,366.23228 355.98754,367.58981 C 355.98754,368.21338 355.29624,369.05366 353.45384,370.66949 C 346.73114,376.56535 344.84474,378.87032 342.38444,384.19543 C 341.20044,386.75804 340.51014,389.2579 340.98654,389.2579 C 341.11054,389.2579 342.39514,388.1609 343.84114,386.82013 C 346.87414,384.0079 347.56924,383.68579 348.82694,384.50987 C 349.57874,385.00245 349.69104,385.28004 349.50824,386.19395 C 349.00024,388.73383 344.28574,392.01941 336.84244,395.02078 C 332.52234,396.76276 328.93314,399.09568 325.35294,402.48857 C 321.15524,406.46682 318.25414,407.82449 316.21564,406.7649 z M 365.39074,405.34297 C 365.25694,404.99466 365.24464,403.09406 365.36344,401.1194 C 365.72554,395.10265 364.41944,389.60986 362.62664,389.60986 C 361.80644,389.60986 361.80354,389.55901 362.85404,393.48147 C 363.68534,396.58508 363.74754,401.00681 362.97084,401.78345 C 362.43424,402.32005 362.35464,402.30168 361.86984,401.5293 C 361.58244,401.07139 361.25764,399.42966 361.14804,397.88102 C 361.03844,396.33237 360.71064,393.32924 360.41954,391.20739 C 360.12854,389.08551 359.93474,387.30514 359.98894,387.25093 C 360.04314,387.19677 360.99944,387.38999 362.11414,387.68033 C 366.72964,388.8825 372.52984,394.65319 372.52984,398.04299 C 372.52984,398.63144 372.38474,399.11289 372.20744,399.11289 C 372.03004,399.11289 371.02594,398.16361 369.97604,397.00339 C 368.92604,395.84318 367.96244,394.99847 367.83464,395.12626 C 367.70694,395.25406 367.59554,396.40129 367.58724,397.67571 C 367.56994,400.33878 365.81784,406.45471 365.39074,405.34297 z M 363.20284,364.41175 C 356.95384,362.13469 352.56134,360.7388 350.98854,360.53012 C 348.09474,360.14627 347.58024,358.30666 350.01464,357.04779 C 351.36194,356.35108 357.12714,355.80696 360.73904,356.03565 C 364.87854,356.29775 366.37984,356.77055 367.64394,358.21022 C 368.67664,359.38641 368.72454,359.57267 368.59324,361.89711 C 368.38484,365.5845 367.52364,365.98623 363.20284,364.41175 z M 336.54154,361.42907 C 335.48284,360.80469 335.80804,359.76724 337.30114,359.00548 C 340.34194,357.4542 342.96514,357.82704 341.70164,359.63096 C 340.69954,361.06162 337.69424,362.10889 336.54154,361.42907 z M 248.07544,352.41405 C 247.20774,350.44711 247.07344,347.26068 247.72954,344.20653 C 248.04144,342.75468 248.48384,339.29308 248.71274,336.51409 C 249.09574,331.86404 249.19344,331.41912 249.93814,330.93119 C 250.94854,330.26913 252.96624,330.58407 253.93764,331.55546 C 255.22984,332.8476 254.48074,338.55366 252.25374,344.38251 C 251.73604,345.73757 250.90874,348.33784 250.41544,350.16089 C 249.92214,351.98394 249.32724,353.53914 249.09344,353.6169 C 248.85964,353.69466 248.40154,353.15337 248.07544,352.41405 z M 310.16614,345.62974 C 307.03594,345.05546 304.38664,343.26105 298.97104,338.04716 C 296.15604,335.33704 292.25644,331.74582 290.30514,330.06667 C 283.29804,324.03662 281.17754,320.59658 284.01684,319.86503 C 284.60084,319.71457 286.16054,318.67571 287.48284,317.55646 C 293.01904,312.87033 293.49094,312.62595 294.76914,313.78273 C 295.10274,314.08469 296.38234,314.70337 297.61254,315.15757 C 298.84274,315.61177 301.19554,316.54992 302.84104,317.24235 C 304.48644,317.93479 306.03794,318.50399 306.28874,318.50725 C 306.54594,318.51058 306.20054,317.80024 305.49684,316.87872 C 304.06404,315.00226 303.92924,314.2896 305.00694,314.2896 C 306.13514,314.2896 310.05664,316.60095 310.45924,317.50325 C 310.67444,317.98546 311.34184,318.43683 312.19254,318.67546 C 313.51614,319.04674 313.57684,319.1275 313.59774,320.54471 C 313.61404,321.64795 313.93884,322.48393 314.87064,323.82074 C 316.13664,325.6372 319.56314,328.72012 320.31594,328.72012 C 321.32504,328.72012 325.63424,322.52151 326.81034,319.37811 C 327.42654,317.73122 327.80704,317.30329 329.87204,315.93513 C 332.58494,314.13757 333.60954,313.1212 334.15214,311.68905 C 334.65014,310.37479 334.47164,310.24177 333.13624,310.9323 C 332.12684,311.45429 332.02404,311.45348 331.82014,310.92199 C 331.45004,309.95746 332.02504,302.36941 332.56654,301.07356 C 333.19234,299.57587 333.81364,299.54274 335.10384,300.93825 C 336.38754,302.32671 337.72424,303.02676 339.09184,303.02676 C 340.31284,303.02676 341.90684,304.36031 341.91244,305.38651 C 341.92024,306.82004 343.63594,309.61338 345.62544,311.43166 L 347.69494,313.32308 L 345.28644,318.03332 C 342.49564,323.49116 340.52114,326.39788 339.10824,327.12856 C 338.27794,327.55788 338.04214,327.56605 337.71894,327.17665 C 337.19534,326.54576 337.82794,324.81194 340.30504,320.08893 C 343.05054,314.85397 342.91934,313.56482 339.95164,316.61828 C 337.98704,318.63972 335.71814,322.48156 334.57404,325.724 C 333.82584,327.84454 333.71124,328.74722 333.76064,332.13307 C 333.80404,335.10419 333.70184,336.14352 333.34564,336.35663 C 333.08574,336.5121 332.34354,337.64124 331.69634,338.86583 C 329.75584,342.53735 327.64754,343.89256 322.02304,345.08385 C 318.96714,345.7311 312.37334,346.03468 310.16614,345.62974 z M 296.65334,299.30404 C 296.52344,298.61162 296.48694,295.85677 296.57234,293.18216 C 296.69364,289.38052 296.85874,288.11903 297.32864,287.40184 C 298.05424,286.2944 298.58124,286.25378 299.79874,287.21147 C 301.72414,288.72602 302.24744,293.35097 300.86804,296.66249 C 300.28514,298.06195 298.01654,300.56301 297.33004,300.56301 C 297.08774,300.56301 296.78324,299.99647 296.65334,299.30404 z M 333.29794,292.61867 C 332.97254,290.01416 332.36604,288.65477 330.51604,286.38352 C 328.25154,283.60324 327.95264,282.94739 328.70084,282.40028 C 330.69944,280.93885 334.51774,286.84387 334.51774,291.39619 C 334.51774,294.99106 333.69714,295.81349 333.29794,292.61867 z M 453.86134,273.01665 C 453.39264,272.77753 452.95254,272.41 452.88344,272.19992 C 452.70844,271.66874 454.32524,270.11823 456.82514,268.41964 C 461.77954,265.05342 463.66784,262.63779 472.14344,248.82432 C 480.20614,235.6836 482.55044,232.37256 483.27694,233.09914 C 484.01934,233.84148 483.01104,239.9818 480.95484,247.24048 C 480.18714,249.95061 479.29744,253.5922 478.97774,255.33292 C 478.27174,259.17675 477.21514,261.35445 474.82754,263.88642 C 469.38404,269.6592 457.45894,274.85225 453.86134,273.01665 z M 220.30544,175.24603 C 209.90184,174.57302 205.05404,174.02433 203.37244,173.32947 C 202.69734,173.05053 201.35044,171.68185 199.85884,169.75895 C 198.52854,168.04395 196.45144,165.473 195.24304,164.04573 C 193.66234,162.17865 192.74874,160.67985 191.98634,158.70274 C 190.33344,154.41654 188.10074,145.76872 188.10074,143.65243 C 188.10074,142.97708 189.33964,141.05214 192.32144,137.09435 C 198.55294,128.823 206.20284,117.18984 205.41054,117.18984 C 205.21514,117.18984 203.81424,117.65903 202.29744,118.23248 C 197.16074,120.17453 194.22174,120.80565 191.11074,120.63474 C 189.08854,120.52365 187.83404,120.25066 186.73094,119.6817 C 184.54324,118.55327 181.89144,115.97197 181.64284,114.72888 C 181.50174,114.0236 180.98764,113.41021 180.03184,112.80684 C 179.25974,112.31944 178.47684,111.63818 178.29204,111.29294 C 177.91894,110.59579 177.46254,107.47108 176.66854,100.17752 C 176.37694,97.49926 176.03584,95.14198 175.91044,94.93911 C 175.75874,94.69366 174.38774,94.65219 171.81214,94.81516 L 167.94184,95.06007 L 168.18174,93.55961 C 168.31374,92.73435 168.87884,91.25942 169.43744,90.28196 C 171.91214,85.95233 172.27694,85.07691 172.62294,82.63708 C 173.41364,77.061995 171.83224,66.078235 169.26184,59.291775 C 168.74864,57.936715 168.11354,55.606255 167.85044,54.112965 C 167.58744,52.619675 167.04714,50.306035 166.64964,48.971545 C 166.25224,47.637045 165.92704,46.227175 165.92704,45.838495 C 165.92704,44.696635 168.28494,40.314505 169.77854,38.680535 C 170.69184,37.681405 171.70214,35.856765 172.77234,33.273665 C 174.49404,29.118215 176.31354,25.679225 176.79054,25.679225 C 177.45874,25.679225 178.27064,27.131315 179.63194,30.761625 C 181.61184,36.041365 182.71744,40.340875 183.16714,44.509295 C 183.61764,48.686035 183.82204,49.548705 185.66814,55.068215 C 186.44504,57.391175 187.25014,59.846115 187.45714,60.523645 C 187.66424,61.201185 188.21864,62.270335 188.68914,62.899545 C 189.83524,64.432175 190.56454,66.247945 190.56454,67.569105 C 190.56454,69.055715 191.38114,70.508605 192.50444,71.020395 C 193.01964,71.255155 194.57584,71.620905 195.96244,71.833175 C 200.55184,72.535705 202.17934,72.888965 202.17934,73.182615 C 202.17934,73.877775 198.23864,75.893825 193.45354,77.646705 C 187.52104,79.819895 181.54644,82.63407 180.56664,83.71671 C 179.59454,84.79084 180.26024,84.6574 184.51434,82.92532 C 186.58364,82.08278 188.75194,81.28173 189.33264,81.14519 C 191.32964,80.67569 194.98034,79.106765 202.53134,75.473015 C 206.69324,73.470135 211.76154,71.255675 213.79414,70.551985 C 219.67184,68.517115 233.91084,65.241265 245.11894,63.345355 C 247.53864,62.936045 251.85754,62.054525 254.71654,61.386415 C 260.50174,60.034445 261.88444,59.944295 265.12334,60.707855 C 269.00204,61.622235 271.81584,63.754675 272.52294,66.315665 C 273.23424,68.891785 269.89324,81.93551 267.45754,86.09177 C 266.96334,86.93498 266.71634,87.62487 266.90864,87.62487 C 267.10094,87.62487 266.95274,88.298 266.57924,89.12072 C 266.18854,89.98136 265.89694,91.40649 265.89254,92.47676 C 265.88314,94.72863 265.25484,95.79271 263.23584,96.97593 C 260.13114,98.79542 247.20974,103.01999 234.23864,106.45637 C 227.79254,108.16413 225.97744,108.86434 226.20754,109.55461 C 226.28434,109.78487 227.15394,110.08937 228.14004,110.23129 C 233.79104,111.04455 249.49604,119.68851 254.97524,125.00127 C 256.23424,126.22202 258.00224,127.64415 258.90424,128.16157 C 260.41954,129.03081 260.57524,129.25178 260.95234,131.06829 C 261.46764,133.55074 260.89944,136.68989 257.47344,150.28778 C 254.00944,164.03648 252.21634,169.32561 250.55064,170.70801 C 250.18874,171.00841 248.72294,171.30126 246.91564,171.43425 C 245.24994,171.55682 243.01594,171.9783 241.95124,172.37087 C 236.21684,174.48528 232.80854,175.56062 231.39234,175.70231 C 230.52124,175.78946 225.53214,175.58413 220.30544,175.24603 z M 261.06104,173.83161 C 259.52824,173.37029 258.84554,172.27138 258.84554,170.26519 C 258.84554,166.40762 260.52494,164.12193 270.69694,154.13495 C 278.41434,146.55798 282.95534,142.80859 285.15434,142.19791 C 287.97984,141.41324 291.74034,141.92314 298.06154,143.94802 C 307.75354,147.05262 321.87324,154.39198 325.16614,158.03678 C 327.05304,160.12534 326.81614,162.5843 324.60304,163.88103 C 321.35624,165.7835 315.31934,167.5124 311.87314,167.52678 C 308.19924,167.54211 300.15654,170.32376 298.23614,172.24328 C 297.04854,173.43031 295.56554,173.43072 286.42514,172.24657 C 281.60804,171.6225 278.72434,171.41026 277.14764,171.56373 C 273.95184,171.8748 269.15754,172.70449 267.09464,173.30348 C 264.60364,174.02678 262.36164,174.22302 261.06104,173.83161 z M 335.09584,161.52736 C 333.48444,161.04445 332.81644,160.18405 332.40854,158.06588 C 331.56714,153.69656 331.24964,152.75409 329.25024,148.6906 C 326.28624,142.66695 321.65164,135.47033 316.21714,128.45268 C 314.08414,125.69831 312.89094,122.3693 313.22314,120.09951 C 313.50924,118.14499 315.39854,114.45227 317.68294,111.38243 C 318.69124,110.02737 322.89164,105.5808 327.01704,101.50116 C 331.14244,97.42152 334.51774,93.90466 334.51774,93.68591 C 334.51774,93.46717 333.93404,93.17868 333.22054,93.04484 C 331.95944,92.80826 317.03154,93.04705 306.00864,93.48014 L 300.55324,93.69448 L 297.38554,90.10675 C 292.50424,84.57814 283.20424,70.484935 281.39714,65.878065 C 279.48944,61.014425 281.01064,59.544245 290.34624,57.229195 C 301.99004,54.341785 305.86584,53.929195 326.00984,53.432705 C 345.16584,52.960575 349.21694,53.125485 357.04344,54.696015 C 364.96954,56.286535 368.68694,57.637165 373.89574,60.818965 C 376.85174,62.624585 378.61364,63.227335 379.92964,62.883185 C 381.72774,62.412945 387.84134,64.495995 389.09424,66.005795 C 390.13704,67.262405 389.36314,72.242855 387.53974,76.010055 L 386.43244,78.297825 L 386.43244,86.393 C 386.43244,92.51244 386.59284,95.54755 387.08974,98.82878 C 387.53544,101.77216 387.63174,103.28466 387.38884,103.5275 C 386.65424,104.26208 384.31364,101.2345 382.10654,96.6948 C 380.89554,94.20412 379.56194,91.96898 379.04334,91.56109 C 377.95504,90.70503 374.71564,90.21658 373.13434,90.67011 C 372.37564,90.8877 371.96914,91.25991 371.83754,91.85769 C 371.69524,92.50344 371.03544,93.03512 369.28304,93.91592 C 366.82524,95.15133 365.00064,95.41948 362.64704,94.89115 C 361.56544,94.64837 361.22944,94.74118 360.27124,95.54746 C 358.91294,96.69038 358.82224,97.47986 360.04914,97.47986 C 361.91074,97.47986 364.01134,99.08027 369.92334,105.00299 C 376.24474,111.33578 379.67374,115.37313 380.91074,117.93966 C 381.92964,120.05361 382.84044,125.11266 382.96184,129.33259 C 383.01754,131.26839 383.25244,133.68354 383.48394,134.6996 C 383.81624,136.15798 383.81024,136.96989 383.45544,138.55553 C 381.67154,146.52668 375.49524,153.42652 370.13294,153.43868 C 369.11374,153.44099 367.09244,154.06383 363.97354,155.33664 C 358.97924,157.37479 356.56874,158.01765 353.92084,158.01765 C 352.65334,158.01765 351.46334,158.39604 349.07484,159.55856 C 347.33354,160.40607 345.08024,161.27718 344.06754,161.49437 C 341.94294,161.95003 336.57224,161.96978 335.09584,161.52736 z M 385.24644,147.89643 C 384.44424,146.39745 387.41884,141.45286 392.01464,136.64597 C 394.13614,134.42703 395.20294,133.59548 396.59014,133.07936 C 398.20234,132.47954 398.45764,132.2391 398.93694,130.86945 C 399.68284,128.73786 400.82674,128.5589 401.61154,130.45103 C 401.91834,131.19095 402.99624,132.82583 404.00674,134.0841 C 406.67484,137.40639 407.09264,138.14779 407.09264,139.55932 C 407.09264,142.5426 403.32014,144.55674 392.59424,147.30001 C 387.19294,148.68146 385.73014,148.80019 385.24644,147.89643 z M 411.70384,138.78015 C 411.39344,137.97125 412.47214,137.12075 418.00264,133.81414 C 426.96994,128.45264 438.15694,122.66438 440.28284,122.28611 C 441.44574,122.07921 442.43774,122.5341 442.08124,123.11079 C 441.95614,123.31332 440.99514,123.72861 439.94584,124.03367 C 438.81074,124.36363 436.49644,125.63331 434.23284,127.16793 C 427.64984,131.63095 413.85444,139.36356 412.47524,139.36356 C 412.17404,139.36356 411.82694,139.10103 411.70384,138.78015 z M 163.74684,40.206305 C 162.53354,38.816045 160.90244,34.386505 160.29654,30.836185 C 159.93574,28.722455 158.03084,23.429285 155.33724,17.056115 C 154.60094,15.313895 153.89904,13.270665 153.77754,12.515615 C 153.63714,11.643315 153.18884,10.809215 152.54794,10.227855 C 151.99314,9.7246348 150.99704,8.8153248 150.33434,8.2071748 C 148.96184,6.9476248 148.51764,5.4788348 149.27894,4.7175048 C 149.55834,4.4380648 149.93404,4.2094348 150.11384,4.2094348 C 150.54844,4.2094348 151.84854,5.5247648 151.84854,5.9645248 C 151.84854,6.5917948 154.43474,7.4162048 157.47994,7.7596748 C 161.57254,8.2212848 162.59344,8.6093148 163.47714,10.039225 C 163.88824,10.704445 164.47144,11.248715 164.77294,11.248715 C 165.31484,11.248715 168.31794,13.570345 171.73444,16.630465 L 173.49434,18.206695 L 173.42274,21.025195 C 173.31794,25.155805 172.47044,28.422755 171.15044,29.784645 C 170.55544,30.398535 168.93884,33.083455 167.55794,35.751145 C 166.17704,38.418825 164.87724,40.653065 164.66954,40.716135 C 164.46184,40.779205 164.04664,40.549775 163.74684,40.206305 z "
     id="path5004" />
</svg>
